<?xml version="1.0" encoding="UTF-8"?>
<!DOCTYPE svg PUBLIC "-//W3C//DTD SVG 1.1//EN" "http://www.w3.org/Graphics/SVG/1.1/DTD/svg11.dtd">
<!-- Creator: CorelDRAW -->
<svg xmlns="http://www.w3.org/2000/svg" xml:space="preserve" width="30mm" height="30mm" version="1.1" style="shape-rendering:geometricPrecision; text-rendering:geometricPrecision; image-rendering:optimizeQuality; fill-rule:evenodd; clip-rule:evenodd"
viewBox="0 0 176.76 176.76"
 xmlns:xlink="http://www.w3.org/1999/xlink"
 xmlns:xodm="http://www.corel.com/coreldraw/odm/2003">
 <defs>
  <style type="text/css">
   <![CDATA[
    .fil0 {fill:#F7A30A}
    .fil1 {fill:white;fill-rule:nonzero}
   ]]>
  </style>
 </defs>
 <g id="Capa_x0020_1">
  <metadata id="CorelCorpID_0Corel-Layer"/>
  <rect class="fil0" y="-0" width="176.76" height="176.76" rx="18.57" ry="20.8"/>
  <g id="_2385740917056">
   <path class="fil1" d="M18.64 67.01c-0.8,0 -1.56,-0.21 -2.27,-0.64 -0.71,-0.42 -1.06,-1.04 -1.06,-1.84l0 -46.82c0,-0.8 0.35,-1.42 1.06,-1.84 0.71,-0.43 1.46,-0.64 2.27,-0.64l25.22 0c0.9,0 1.53,0.35 1.91,1.06 0.38,0.71 0.57,1.44 0.57,2.2 0,0.9 -0.21,1.69 -0.64,2.37 -0.42,0.69 -1.04,1.03 -1.84,1.03l-21.04 0 0 16.22 10.91 0c0.8,0 1.42,0.31 1.84,0.92 0.43,0.61 0.64,1.32 0.64,2.13 0,0.66 -0.19,1.31 -0.57,1.95 -0.38,0.64 -1.02,0.96 -1.91,0.96l-10.91 0 0 16.29 21.04 0c0.8,0 1.42,0.33 1.84,0.99 0.43,0.66 0.64,1.46 0.64,2.41 0,0.76 -0.19,1.49 -0.57,2.2 -0.38,0.71 -1.02,1.06 -1.91,1.06l-25.22 0z"/>
   <path id="_1" class="fil1" d="M67.45 67.43c-1.04,0 -2.02,-0.21 -2.94,-0.64 -0.92,-0.42 -1.52,-1.06 -1.81,-1.91l-14.1 -45.9c-0.09,-0.28 -0.14,-0.5 -0.14,-0.64 0,-0.61 0.25,-1.14 0.74,-1.59 0.5,-0.45 1.11,-0.81 1.84,-1.1 0.73,-0.28 1.43,-0.42 2.09,-0.42 0.66,0 1.23,0.12 1.7,0.35 0.47,0.24 0.78,0.64 0.92,1.2l11.69 40.38 11.62 -40.38c0.19,-0.57 0.52,-0.97 0.99,-1.2 0.47,-0.24 1.02,-0.35 1.63,-0.35 0.71,0 1.42,0.14 2.13,0.42 0.71,0.28 1.31,0.65 1.81,1.1 0.5,0.45 0.74,0.98 0.74,1.59 0,0.09 -0.01,0.19 -0.04,0.28 -0.02,0.09 -0.04,0.21 -0.04,0.35l-14.03 45.9c-0.28,0.85 -0.89,1.49 -1.81,1.91 -0.92,0.43 -1.92,0.64 -3.01,0.64z"/>
   <path id="_2" class="fil1" d="M95.28 67.01c-0.8,0 -1.56,-0.21 -2.27,-0.64 -0.71,-0.42 -1.06,-1.04 -1.06,-1.84l0 -46.82c0,-0.8 0.35,-1.42 1.06,-1.84 0.71,-0.43 1.46,-0.64 2.27,-0.64l25.22 0c0.9,0 1.53,0.35 1.91,1.06 0.38,0.71 0.57,1.44 0.57,2.2 0,0.9 -0.21,1.69 -0.64,2.37 -0.42,0.69 -1.04,1.03 -1.84,1.03l-21.04 0 0 16.22 10.91 0c0.8,0 1.42,0.31 1.84,0.92 0.43,0.61 0.64,1.32 0.64,2.13 0,0.66 -0.19,1.31 -0.57,1.95 -0.38,0.64 -1.02,0.96 -1.91,0.96l-10.91 0 0 16.29 21.04 0c0.8,0 1.42,0.33 1.84,0.99 0.43,0.66 0.64,1.46 0.64,2.41 0,0.76 -0.19,1.49 -0.57,2.2 -0.38,0.71 -1.02,1.06 -1.91,1.06l-25.22 0z"/>
   <path id="_3" class="fil1" d="M156.84 67.22c-0.61,0 -1.17,-0.21 -1.67,-0.64 -0.5,-0.43 -0.91,-0.94 -1.24,-1.56l-10.41 -20.26 -7.08 0 0 19.76c0,0.8 -0.39,1.42 -1.17,1.84 -0.78,0.42 -1.64,0.64 -2.59,0.64 -0.94,0 -1.81,-0.21 -2.59,-0.64 -0.78,-0.42 -1.17,-1.04 -1.17,-1.84l0 -46.89c0,-0.66 0.22,-1.23 0.67,-1.7 0.45,-0.47 1.07,-0.71 1.88,-0.71l13.46 0c2.97,0 5.69,0.44 8.15,1.31 2.46,0.87 4.42,2.36 5.88,4.46 1.46,2.1 2.2,4.99 2.2,8.68 0,2.83 -0.44,5.19 -1.31,7.08 -0.87,1.89 -2.05,3.39 -3.54,4.5 -1.49,1.11 -3.18,1.92 -5.06,2.44l9.92 18.63c0.09,0.14 0.17,0.32 0.21,0.53 0.05,0.21 0.07,0.39 0.07,0.53 0,0.61 -0.24,1.22 -0.71,1.81 -0.47,0.59 -1.05,1.07 -1.74,1.45 -0.68,0.38 -1.4,0.57 -2.16,0.57zm-20.4 -28.48l8.5 0c2.64,0 4.76,-0.64 6.34,-1.91 1.58,-1.28 2.37,-3.45 2.37,-6.52 0,-3.07 -0.79,-5.24 -2.37,-6.52 -1.58,-1.28 -3.7,-1.91 -6.34,-1.91l-8.5 0 0 16.86z"/>
   <path class="fil1" d="M33.05 134.37c-3.21,0 -6.17,-0.59 -8.87,-1.77 -2.7,-1.18 -4.86,-3.08 -6.46,-5.7 -1.6,-2.62 -2.41,-6.1 -2.41,-10.43l0 -23.35c0,-4.33 0.8,-7.81 2.41,-10.43 1.6,-2.62 3.77,-4.52 6.5,-5.7 2.73,-1.18 5.7,-1.77 8.91,-1.77 3.69,0 6.89,0.63 9.59,1.89 2.7,1.26 4.81,2.97 6.34,5.14 1.52,2.17 2.29,4.67 2.29,7.5 0,1.82 -0.35,3.01 -1.04,3.57 -0.7,0.56 -1.77,0.84 -3.21,0.84 -1.28,0 -2.3,-0.23 -3.05,-0.68 -0.75,-0.45 -1.15,-1.16 -1.2,-2.13 -0.05,-0.7 -0.19,-1.52 -0.4,-2.49 -0.21,-0.96 -0.63,-1.91 -1.24,-2.85 -0.62,-0.94 -1.54,-1.71 -2.77,-2.33 -1.23,-0.62 -2.92,-0.92 -5.06,-0.92 -3.1,0 -5.48,0.84 -7.14,2.53 -1.66,1.69 -2.49,4.29 -2.49,7.82l0 23.35c0,3.53 0.84,6.14 2.53,7.82 1.69,1.69 4.13,2.53 7.34,2.53 2.03,0 3.65,-0.31 4.85,-0.92 1.2,-0.62 2.1,-1.39 2.69,-2.33 0.59,-0.94 0.99,-1.93 1.2,-2.97 0.21,-1.04 0.37,-1.99 0.48,-2.85 0.05,-1.02 0.47,-1.74 1.24,-2.17 0.78,-0.43 1.75,-0.64 2.93,-0.64 1.5,0 2.59,0.29 3.29,0.88 0.7,0.59 1.04,1.77 1.04,3.53 0,2.89 -0.76,5.47 -2.29,7.74 -1.52,2.27 -3.65,4.05 -6.38,5.34 -2.73,1.28 -5.94,1.93 -9.63,1.93z"/>
   <path id="_1_0" class="fil1" d="M63.54 133.89c-1.07,0 -2.05,-0.24 -2.93,-0.72 -0.88,-0.48 -1.32,-1.18 -1.32,-2.09l0 -53.13c0,-0.96 0.44,-1.66 1.32,-2.09 0.88,-0.43 1.86,-0.64 2.93,-0.64 1.07,0 2.05,0.21 2.93,0.64 0.88,0.43 1.32,1.12 1.32,2.09l0 22.15 19.98 0 0 -22.15c0,-0.96 0.44,-1.66 1.32,-2.09 0.88,-0.43 1.86,-0.64 2.93,-0.64 1.07,0 2.05,0.21 2.93,0.64 0.88,0.43 1.32,1.12 1.32,2.09l0 53.13c0,0.91 -0.44,1.6 -1.32,2.09 -0.88,0.48 -1.86,0.72 -2.93,0.72 -1.07,0 -2.05,-0.24 -2.93,-0.72 -0.88,-0.48 -1.32,-1.18 -1.32,-2.09l0 -24.24 -19.98 0 0 24.24c0,0.91 -0.44,1.6 -1.32,2.09 -0.88,0.48 -1.86,0.72 -2.93,0.72z"/>
   <path id="_2_1" class="fil1" d="M111.13 133.89c-1.07,0 -2.05,-0.24 -2.93,-0.72 -0.88,-0.48 -1.32,-1.18 -1.32,-2.09l0 -53.13c0,-0.96 0.44,-1.66 1.32,-2.09 0.88,-0.43 1.86,-0.64 2.93,-0.64 1.07,0 2.05,0.21 2.93,0.64 0.88,0.43 1.32,1.12 1.32,2.09l0 53.13c0,0.91 -0.44,1.6 -1.32,2.09 -0.88,0.48 -1.86,0.72 -2.93,0.72z"/>
   <path id="_3_2" class="fil1" d="M143.15 134.37c-3.21,0 -6.17,-0.59 -8.87,-1.77 -2.7,-1.18 -4.86,-3.08 -6.46,-5.7 -1.6,-2.62 -2.41,-6.1 -2.41,-10.43l0 -23.35c0,-4.33 0.8,-7.81 2.41,-10.43 1.6,-2.62 3.77,-4.52 6.5,-5.7 2.73,-1.18 5.7,-1.77 8.91,-1.77 3.69,0 6.89,0.63 9.59,1.89 2.7,1.26 4.81,2.97 6.34,5.14 1.52,2.17 2.29,4.67 2.29,7.5 0,1.82 -0.35,3.01 -1.04,3.57 -0.7,0.56 -1.77,0.84 -3.21,0.84 -1.28,0 -2.3,-0.23 -3.05,-0.68 -0.75,-0.45 -1.15,-1.16 -1.2,-2.13 -0.05,-0.7 -0.19,-1.52 -0.4,-2.49 -0.21,-0.96 -0.63,-1.91 -1.24,-2.85 -0.62,-0.94 -1.54,-1.71 -2.77,-2.33 -1.23,-0.62 -2.92,-0.92 -5.06,-0.92 -3.1,0 -5.48,0.84 -7.14,2.53 -1.66,1.69 -2.49,4.29 -2.49,7.82l0 23.35c0,3.53 0.84,6.14 2.53,7.82 1.69,1.69 4.13,2.53 7.34,2.53 2.03,0 3.65,-0.31 4.85,-0.92 1.2,-0.62 2.1,-1.39 2.69,-2.33 0.59,-0.94 0.99,-1.93 1.2,-2.97 0.21,-1.04 0.37,-1.99 0.48,-2.85 0.05,-1.02 0.47,-1.74 1.24,-2.17 0.78,-0.43 1.75,-0.64 2.93,-0.64 1.5,0 2.59,0.29 3.29,0.88 0.7,0.59 1.04,1.77 1.04,3.53 0,2.89 -0.76,5.47 -2.29,7.74 -1.52,2.27 -3.65,4.05 -6.38,5.34 -2.73,1.28 -5.94,1.93 -9.63,1.93z"/>
  </g>
  <path class="fil1" d="M20.93 165.42c-1.21,0 -2.32,-0.22 -3.34,-0.67 -1.02,-0.44 -1.83,-1.16 -2.43,-2.15 -0.61,-0.99 -0.91,-2.3 -0.91,-3.93l0 -8.8c0,-1.63 0.3,-2.94 0.91,-3.93 0.6,-0.99 1.42,-1.7 2.45,-2.15 1.03,-0.44 2.15,-0.67 3.36,-0.67 1.39,0 2.6,0.24 3.61,0.71 1.02,0.47 1.81,1.12 2.39,1.94 0.57,0.82 0.86,1.76 0.86,2.83 0,0.69 -0.13,1.13 -0.39,1.35 -0.26,0.21 -0.67,0.32 -1.21,0.32 -0.48,0 -0.87,-0.09 -1.15,-0.26 -0.28,-0.17 -0.43,-0.44 -0.45,-0.8 -0.02,-0.26 -0.07,-0.57 -0.15,-0.94 -0.08,-0.36 -0.24,-0.72 -0.47,-1.07 -0.23,-0.35 -0.58,-0.65 -1.04,-0.88 -0.46,-0.23 -1.1,-0.35 -1.91,-0.35 -1.17,0 -2.07,0.32 -2.69,0.95 -0.63,0.64 -0.94,1.62 -0.94,2.95l0 8.8c0,1.33 0.32,2.31 0.95,2.95 0.64,0.64 1.56,0.95 2.77,0.95 0.77,0 1.38,-0.12 1.83,-0.35 0.45,-0.23 0.79,-0.52 1.01,-0.88 0.22,-0.35 0.37,-0.73 0.45,-1.12 0.08,-0.39 0.14,-0.75 0.18,-1.07 0.02,-0.38 0.18,-0.66 0.47,-0.82 0.29,-0.16 0.66,-0.24 1.1,-0.24 0.56,0 0.98,0.11 1.24,0.33 0.26,0.22 0.39,0.67 0.39,1.33 0,1.09 -0.29,2.06 -0.86,2.92 -0.58,0.86 -1.38,1.53 -2.4,2.01 -1.03,0.48 -2.24,0.73 -3.63,0.73z"/>
  <path id="_1_3" class="fil1" d="M31.21 165.24c-0.28,0 -0.58,-0.06 -0.91,-0.18 -0.32,-0.12 -0.58,-0.28 -0.79,-0.47 -0.2,-0.19 -0.3,-0.42 -0.3,-0.68 0,-0.06 0.01,-0.15 0.03,-0.27l6.02 -19.6c0.12,-0.36 0.38,-0.64 0.77,-0.82 0.39,-0.18 0.81,-0.27 1.26,-0.27 0.46,0 0.89,0.09 1.29,0.27 0.39,0.18 0.65,0.45 0.77,0.82l5.99 19.6c0.04,0.12 0.06,0.21 0.06,0.27 0,0.24 -0.11,0.46 -0.32,0.67 -0.21,0.2 -0.47,0.36 -0.79,0.48 -0.31,0.12 -0.62,0.18 -0.92,0.18 -0.26,0 -0.49,-0.05 -0.68,-0.15 -0.19,-0.1 -0.33,-0.27 -0.41,-0.51l-1.24 -4.3 -7.5 0 -1.21 4.3c-0.06,0.24 -0.2,0.41 -0.41,0.51 -0.21,0.1 -0.45,0.15 -0.71,0.15zm3.05 -7.53l6.05 0 -3.02 -10.37 -3.02 10.37z"/>
  <path id="_2_4" class="fil1" d="M49.21 165.24c-0.34,0 -0.67,-0.09 -0.97,-0.27 -0.3,-0.18 -0.45,-0.44 -0.45,-0.79l0 -20.02c0,-0.36 0.17,-0.63 0.5,-0.79 0.33,-0.16 0.7,-0.24 1.1,-0.24 0.4,0 0.77,0.08 1.1,0.24 0.33,0.16 0.5,0.42 0.5,0.79l0 18.24 7.86 0c0.32,0 0.57,0.15 0.73,0.44 0.16,0.29 0.24,0.62 0.24,0.98 0,0.34 -0.08,0.67 -0.24,0.97 -0.16,0.3 -0.4,0.45 -0.73,0.45l-9.65 0z"/>
  <path id="_3_5" class="fil1" d="M68.14 165.42c-1.21,0 -2.32,-0.22 -3.34,-0.67 -1.02,-0.44 -1.83,-1.16 -2.43,-2.15 -0.61,-0.99 -0.91,-2.3 -0.91,-3.93l0 -8.8c0,-1.63 0.3,-2.94 0.91,-3.93 0.6,-0.99 1.42,-1.7 2.45,-2.15 1.03,-0.44 2.15,-0.67 3.36,-0.67 1.39,0 2.6,0.24 3.61,0.71 1.02,0.47 1.81,1.12 2.39,1.94 0.57,0.82 0.86,1.76 0.86,2.83 0,0.69 -0.13,1.13 -0.39,1.35 -0.26,0.21 -0.67,0.32 -1.21,0.32 -0.48,0 -0.87,-0.09 -1.15,-0.26 -0.28,-0.17 -0.43,-0.44 -0.45,-0.8 -0.02,-0.26 -0.07,-0.57 -0.15,-0.94 -0.08,-0.36 -0.24,-0.72 -0.47,-1.07 -0.23,-0.35 -0.58,-0.65 -1.04,-0.88 -0.46,-0.23 -1.1,-0.35 -1.91,-0.35 -1.17,0 -2.07,0.32 -2.69,0.95 -0.63,0.64 -0.94,1.62 -0.94,2.95l0 8.8c0,1.33 0.32,2.31 0.95,2.95 0.64,0.64 1.56,0.95 2.77,0.95 0.77,0 1.38,-0.12 1.83,-0.35 0.45,-0.23 0.79,-0.52 1.01,-0.88 0.22,-0.35 0.37,-0.73 0.45,-1.12 0.08,-0.39 0.14,-0.75 0.18,-1.07 0.02,-0.38 0.18,-0.66 0.47,-0.82 0.29,-0.16 0.66,-0.24 1.1,-0.24 0.56,0 0.98,0.11 1.24,0.33 0.26,0.22 0.39,0.67 0.39,1.33 0,1.09 -0.29,2.06 -0.86,2.92 -0.58,0.86 -1.38,1.53 -2.4,2.01 -1.03,0.48 -2.24,0.73 -3.63,0.73z"/>
  <path id="_4" class="fil1" d="M79.46 165.24c-0.34,0 -0.67,-0.09 -0.97,-0.27 -0.3,-0.18 -0.45,-0.44 -0.45,-0.79l0 -19.99c0,-0.34 0.15,-0.61 0.45,-0.79 0.3,-0.18 0.63,-0.27 0.97,-0.27l10.77 0c0.38,0 0.66,0.15 0.82,0.45 0.16,0.3 0.24,0.62 0.24,0.94 0,0.38 -0.09,0.72 -0.27,1.01 -0.18,0.29 -0.44,0.44 -0.79,0.44l-8.98 0 0 6.93 4.66 0c0.34,0 0.61,0.13 0.79,0.39 0.18,0.26 0.27,0.56 0.27,0.91 0,0.28 -0.08,0.56 -0.24,0.83 -0.16,0.27 -0.43,0.41 -0.82,0.41l-4.66 0 0 6.96 8.98 0c0.34,0 0.6,0.14 0.79,0.42 0.18,0.28 0.27,0.63 0.27,1.03 0,0.32 -0.08,0.64 -0.24,0.94 -0.16,0.3 -0.43,0.45 -0.82,0.45l-10.77 0z"/>
  <path id="_5" class="fil1" d="M99.48 165.24c-0.4,0 -0.77,-0.09 -1.1,-0.27 -0.33,-0.18 -0.5,-0.44 -0.5,-0.79l0 -18.12 -4.69 0c-0.32,0 -0.57,-0.15 -0.76,-0.45 -0.18,-0.3 -0.27,-0.65 -0.27,-1.03 0,-0.36 0.08,-0.7 0.24,-1 0.16,-0.3 0.42,-0.45 0.79,-0.45l12.55 0c0.38,0 0.66,0.15 0.82,0.45 0.16,0.3 0.24,0.63 0.24,0.97 0,0.4 -0.09,0.76 -0.26,1.06 -0.17,0.3 -0.44,0.45 -0.8,0.45l-4.66 0 0 18.12c0,0.34 -0.17,0.61 -0.5,0.79 -0.33,0.18 -0.7,0.27 -1.1,0.27z"/>
  <path id="_6" class="fil1" d="M110.73 165.24c-0.4,0 -0.77,-0.09 -1.1,-0.27 -0.33,-0.18 -0.5,-0.44 -0.5,-0.79l0 -20.02c0,-0.36 0.17,-0.63 0.5,-0.79 0.33,-0.16 0.7,-0.24 1.1,-0.24 0.4,0 0.77,0.08 1.1,0.24 0.33,0.16 0.5,0.42 0.5,0.79l0 20.02c0,0.34 -0.17,0.61 -0.5,0.79 -0.33,0.18 -0.7,0.27 -1.1,0.27z"/>
  <path id="_7" class="fil1" d="M117.93 165.24c-0.4,0 -0.77,-0.09 -1.1,-0.27 -0.33,-0.18 -0.5,-0.44 -0.5,-0.79l0 -19.99c0,-0.38 0.17,-0.66 0.5,-0.82 0.33,-0.16 0.7,-0.24 1.1,-0.24 0.38,0 0.71,0.06 0.98,0.17 0.27,0.11 0.52,0.3 0.74,0.56 0.22,0.26 0.45,0.63 0.7,1.09l6.71 13.1 0 -13.88c0,-0.36 0.17,-0.63 0.5,-0.79 0.33,-0.16 0.7,-0.24 1.1,-0.24 0.4,0 0.77,0.08 1.1,0.24 0.33,0.16 0.5,0.42 0.5,0.79l0 20.02c0,0.34 -0.17,0.61 -0.5,0.79 -0.33,0.18 -0.7,0.27 -1.1,0.27 -0.4,0 -0.77,-0.1 -1.09,-0.3 -0.32,-0.2 -0.59,-0.49 -0.82,-0.88l-7.23 -13.76 0 13.88c0,0.34 -0.17,0.61 -0.5,0.79 -0.33,0.18 -0.7,0.27 -1.1,0.27z"/>
  <path id="_8" class="fil1" d="M135.68 165.24c-0.34,0 -0.67,-0.09 -0.97,-0.27 -0.3,-0.18 -0.45,-0.44 -0.45,-0.79l0 -19.99c0,-0.34 0.15,-0.61 0.45,-0.79 0.3,-0.18 0.63,-0.27 0.97,-0.27l10.77 0c0.38,0 0.66,0.15 0.82,0.45 0.16,0.3 0.24,0.62 0.24,0.94 0,0.38 -0.09,0.72 -0.27,1.01 -0.18,0.29 -0.44,0.44 -0.79,0.44l-8.98 0 0 6.93 4.66 0c0.34,0 0.61,0.13 0.79,0.39 0.18,0.26 0.27,0.56 0.27,0.91 0,0.28 -0.08,0.56 -0.24,0.83 -0.16,0.27 -0.43,0.41 -0.82,0.41l-4.66 0 0 6.96 8.98 0c0.34,0 0.6,0.14 0.79,0.42 0.18,0.28 0.27,0.63 0.27,1.03 0,0.32 -0.08,0.64 -0.24,0.94 -0.16,0.3 -0.43,0.45 -0.82,0.45l-10.77 0z"/>
  <path id="_9" class="fil1" d="M155.61 165.48c-1.31,0 -2.47,-0.19 -3.48,-0.58 -1.01,-0.38 -1.79,-0.85 -2.36,-1.41 -0.56,-0.55 -0.85,-1.08 -0.85,-1.59 0,-0.24 0.07,-0.49 0.2,-0.76 0.13,-0.26 0.3,-0.49 0.51,-0.68 0.21,-0.19 0.44,-0.29 0.68,-0.29 0.28,0 0.55,0.12 0.8,0.35 0.25,0.23 0.56,0.51 0.92,0.83 0.36,0.32 0.82,0.61 1.36,0.85 0.54,0.24 1.24,0.36 2.09,0.36 0.73,0 1.38,-0.12 1.95,-0.35 0.58,-0.23 1.03,-0.58 1.36,-1.06 0.33,-0.47 0.5,-1.07 0.5,-1.8 0,-0.77 -0.18,-1.4 -0.53,-1.91 -0.35,-0.5 -0.83,-0.93 -1.42,-1.27 -0.59,-0.34 -1.23,-0.66 -1.92,-0.94 -0.69,-0.28 -1.38,-0.59 -2.09,-0.91 -0.71,-0.32 -1.35,-0.71 -1.94,-1.16 -0.58,-0.45 -1.05,-1.03 -1.41,-1.72 -0.35,-0.7 -0.53,-1.57 -0.53,-2.62 0,-1.11 0.21,-2.04 0.62,-2.78 0.41,-0.75 0.96,-1.34 1.65,-1.78 0.69,-0.44 1.44,-0.76 2.27,-0.95 0.83,-0.19 1.64,-0.29 2.45,-0.29 0.5,0 1.06,0.04 1.68,0.11 0.62,0.07 1.21,0.19 1.8,0.36 0.59,0.17 1.07,0.4 1.45,0.68 0.38,0.28 0.58,0.62 0.58,1.03 0,0.2 -0.05,0.44 -0.15,0.71 -0.1,0.27 -0.25,0.51 -0.44,0.71 -0.19,0.2 -0.44,0.3 -0.74,0.3 -0.26,0 -0.55,-0.1 -0.88,-0.29 -0.32,-0.19 -0.74,-0.38 -1.25,-0.57 -0.51,-0.19 -1.19,-0.29 -2.04,-0.29 -0.73,0 -1.38,0.1 -1.95,0.3 -0.58,0.2 -1.02,0.5 -1.35,0.89 -0.32,0.39 -0.48,0.91 -0.48,1.56 0,0.65 0.18,1.17 0.53,1.59 0.35,0.41 0.82,0.77 1.41,1.06 0.59,0.29 1.23,0.57 1.92,0.83 0.7,0.26 1.39,0.57 2.09,0.92 0.7,0.35 1.34,0.78 1.94,1.29 0.59,0.5 1.07,1.14 1.42,1.92 0.35,0.78 0.53,1.74 0.53,2.89 0,1.45 -0.3,2.66 -0.89,3.61 -0.59,0.96 -1.41,1.67 -2.45,2.13 -1.04,0.46 -2.22,0.7 -3.55,0.7z"/>
 </g>
</svg>
