<?xml version="1.0" encoding="UTF-8"?>
<!DOCTYPE svg PUBLIC "-//W3C//DTD SVG 1.1//EN" "http://www.w3.org/Graphics/SVG/1.1/DTD/svg11.dtd">
<!-- Creator: CorelDRAW -->
<svg xmlns="http://www.w3.org/2000/svg" xml:space="preserve" width="88.9192mm" height="21.6396mm" version="1.1" style="shape-rendering:geometricPrecision; text-rendering:geometricPrecision; image-rendering:optimizeQuality; fill-rule:evenodd; clip-rule:evenodd"
viewBox="0 0 4207.15 1023.86"
 xmlns:xlink="http://www.w3.org/1999/xlink"
 xmlns:xodm="http://www.corel.com/coreldraw/odm/2003">
 <defs>
  <style type="text/css">
   <![CDATA[
    .fil0 {fill:#009D48}
    .fil1 {fill:#FEFEFE;fill-rule:nonzero}
    .fil2 {fill:#DCDDDD;fill-rule:nonzero}
   ]]>
  </style>
 </defs>
 <g id="Capa_x0020_1">
  <metadata id="CorelCorpID_0Corel-Layer"/>
  <g id="_2031223864112">
   <rect class="fil0" x="-0.01" y="0" width="4207.15" height="1023.86" rx="51.38" ry="51.38"/>
   <g>
    <path class="fil1" d="M2133.55 337.96l0 -17.89c0,-4.44 -3.59,-8 -8,-8l-17.9 0c-8.99,0 -16.29,7.28 -16.29,16.27l0 17.92c0,4.42 3.58,8 8,8l17.92 0c8.99,0 16.27,-7.31 16.27,-16.3zm1095.7 175.68c0,-46.87 26.25,-87.69 90.36,-87.69 58.82,0 90.78,31.44 90.78,87.69l-181.13 0zm222.52 0.63c0,-64.25 -41.39,-132.39 -132.17,-132.39 -77.29,0 -135.55,59.15 -135.55,137.6 0,80.71 55.72,137.06 135.55,137.06 39.57,0 77.01,-13.95 102.63,-38.24 1.94,-1.79 5.04,-5.29 9.35,-10.39 2.59,-3.06 3.56,-7.08 2.62,-11.09 -0.67,-2.94 -2.56,-5.46 -4.91,-7.33l-12.05 -9.65c-2.24,-1.79 -5.04,-2.76 -7.89,-2.76 -3.69,0 -7.19,1.57 -9.59,4.39 -5,5.79 -7.14,7.84 -8,8.57 -17.57,15 -45.89,26.64 -72.17,26.64 -45.47,0 -81.87,-28.01 -90.3,-70.2l220.34 0c0,0 2.13,-17.81 2.13,-32.2zm-1223.34 -0.63c0,-46.87 26.22,-87.69 90.33,-87.69 58.82,0 90.78,31.44 90.78,87.69l-181.11 0zm222.5 0.63c0,-64.25 -41.39,-132.39 -132.17,-132.39 -77.26,0 -135.55,59.15 -135.55,137.6 0,80.71 55.76,137.06 135.55,137.06 39.6,0 76.99,-13.95 102.66,-38.24 1.9,-1.79 5.05,-5.29 9.32,-10.39 2.59,-3.06 3.56,-7.08 2.65,-11.09 -0.69,-2.94 -2.56,-5.46 -4.91,-7.33l-12.07 -9.65c-2.24,-1.79 -5.02,-2.76 -7.89,-2.76 -3.7,0 -7.2,1.57 -9.6,4.39 -4.99,5.79 -7.13,7.84 -8,8.57 -17.56,15 -45.88,26.64 -72.16,26.64 -45.47,0 -81.84,-28.01 -90.28,-70.2l220.35 0c0,0 2.1,-17.81 2.1,-32.2zm-1128.51 -0.63c0,-46.87 26.44,-90.22 90.55,-90.22 58.82,0 90.55,33.97 90.55,90.22l-181.1 0zm222.5 0.63c0,-64.25 -41.4,-132.39 -132.14,-132.39 -77.29,0 -135.58,59.15 -135.58,137.6 0,80.71 55.76,137.06 135.58,137.06 39.57,0 76.99,-13.95 102.63,-38.24 1.9,-1.79 5.04,-5.29 9.35,-10.39 2.56,-3.06 3.56,-7.08 2.62,-11.09 -0.69,-2.94 -2.56,-5.46 -4.91,-7.33l-12.05 -9.65c-2.23,-1.79 -5.04,-2.76 -7.91,-2.76 -3.7,0 -7.17,1.57 -9.57,4.39 -5.02,5.79 -7.17,7.84 -8,8.57 -17.57,15 -45.91,26.64 -72.17,26.64 -45.49,0 -81.86,-28.01 -90.3,-70.2l220.38 0c0,0 2.07,-17.81 2.07,-32.2zm1198.1 -13.9l0 150.67c0,4.38 -3.56,7.96 -8.01,7.96l-26.25 0c-4.39,0 -7.96,-3.58 -7.96,-7.96l0 -150.18c0,-23.74 -7.18,-42.74 -21.02,-56.46 -13.14,-12.96 -33.91,-20.14 -58.18,-20.14l-1.62 0c-45.7,0.44 -78.56,34.58 -78.56,81.13l0 145.65c0,4.38 -3.59,7.96 -7.97,7.96l-26.25 0c-4.41,0 -7.97,-3.58 -7.97,-7.96l0 -250.35c0,-4.91 4,-8.94 8.93,-8.94l4.64 0c14.23,0 26.03,9.16 27.88,22.89 19.69,-19.25 48.06,-32.26 79.72,-32.26l0.06 0c74.17,0 122.57,45.72 122.57,117.99zm442.7 -91.47l-11.28 20.38c-2.23,4.03 -6.5,6.53 -11.11,6.53 -2.11,0 -4.3,-0.55 -6.17,-1.59 -4.03,-2.2 -5.71,-2.96 -6.26,-3.2 -8.93,-3.84 -18.94,-5.73 -29.33,-5.73 -41.14,0.44 -73.82,32.76 -73.82,73.56l0 152.13c0,4.41 -3.59,8.02 -8,8.02l-26.19 0c-4.42,0 -8,-3.61 -8,-8.02l0 -251.23c0,-4.38 3.61,-8 8,-8l7.39 0c14.06,0 25.97,8.69 27.85,22.37 18.28,-18.41 44.58,-30.74 73.79,-30.74 0.94,-0.03 1.93,-0.03 2.87,-0.03 14.47,0 28.71,3.08 42.27,9.13 2.56,1.13 7.89,4.03 15.75,8.52 2.76,1.59 3.8,5.16 2.26,7.91zm-237.63 205.51c-2.02,-4.66 -6.37,-8.16 -11.45,-8.33 -1.93,-0.08 -3.84,0.28 -5.6,1.08 -5.24,2.31 -7.44,3.17 -8.38,3.53 -8.3,2.95 -15.61,4.46 -22.22,4.46 -30.42,0 -35.55,-15.47 -35.55,-47.95l0 -137.93 76.44 0c4.39,0 7.97,-3.58 7.97,-8l0 -21.56c0,-4.41 -3.59,-7.97 -7.97,-7.97l-76.44 0 0 -71.69c0,-4.44 -3.56,-8 -8,-8l-9.24 0c-13.78,0 -24.95,11.17 -24.95,24.95l0 54.74 -48.28 0c-4.42,0 -7.97,3.56 -7.97,7.97l0 21.56c0,4.41 3.55,8 7.97,8l48.28 0 0 137.93c0,60.12 25.37,89.34 78.06,89.34 10.81,0 21.86,-2.17 34.13,-6.64 2.76,-1.02 8.33,-3.47 16.71,-7.36 3.97,-1.82 5.79,-6.48 4.05,-10.48l-7.58 -17.65zm957.16 -0.25c-53.44,0 -92.19,-39.85 -92.19,-94.69 0,-54.57 38.75,-94.19 92.19,-94.19 64.8,0 94.3,48.94 94.3,94.43 0,45.47 -29.51,94.44 -94.3,94.44zm128.38 -222.42l-11.03 0c-15.38,0 -27.85,12.47 -27.85,27.85 -23.44,-23.22 -53.8,-36.7 -90.83,-36.7 -76.85,0 -134.89,58.7 -134.89,136.58 0,78.42 57.93,137.57 134.54,137.57 36.03,0 67.74,-13.3 91.18,-38.64l0 32.63c0,4.38 3.59,7.96 7.97,7.96l30.93 0c4.41,0 7.97,-3.58 7.97,-7.96l0 -251.29c0,-4.4 -3.58,-8 -8,-8zm-420.28 206.34c-54.27,0 -82.64,-43.37 -82.64,-86.17 0,-42.13 21.7,-87.16 82.64,-87.16 50.79,0 83.6,34.22 83.6,87.16 0,46.71 -38.27,86.17 -83.6,86.17zm71.42 18.28c33.72,-22.83 55.09,-62.92 55.09,-104.45 0,-34.33 -8.79,-61.3 -27.68,-84.48l19.36 -22.58c2.23,-2.59 2.53,-7.06 0.58,-9.85 -8.02,-11.3 -23.05,-15.14 -35.88,-8.22 -2.89,1.57 -5.35,3.83 -7.49,6.32l-6.78 7.91c-20.52,-12.51 -45.28,-19.63 -68.6,-19.63 -75.39,0 -126.02,52.47 -126.02,130.53 0,75.06 53,129.55 126.02,129.55 39.02,0 84.63,17 84.63,65.01 0,60.8 -64.61,65.55 -84.41,65.55 -36.73,0 -77.79,-14.87 -82.89,-56.62 -0.09,-0.61 -0.25,0.17 -0.42,-6.37 -0.11,-4.35 -3.64,-7.89 -8,-7.89l-26.2 0.03c-4.39,0 -7.94,3.55 -7.94,7.91l0 2.15c0.11,3.8 0.25,5.96 0.39,7.41 5.79,58.76 55.12,96.49 125.62,96.49 78.42,0 127.12,-41.66 127.12,-108.56 0,-40.26 -19.47,-71.39 -56.5,-90.22zm-2543.76 -119.26l-8.88 -1.49c-28.46,-5.02 -63.89,-11.25 -64.64,-35.76 -0.23,-7.34 2.29,-13.71 7.5,-19.03 10.5,-10.67 31.54,-17.09 56.25,-17.09l1.74 0.03c19.44,0 40.15,1.88 60.41,15.42 1.46,0.96 4.53,3.36 8.69,6.75 2.26,1.82 5.1,2.87 8,2.87 3.5,0 6.87,-1.46 9.24,-4.02l10.61 -11.3c2.78,-2.96 3.97,-6.95 3.2,-11.06 -0.55,-2.98 -2.35,-5.63 -4.66,-7.58 -5.59,-4.83 -9.7,-8.08 -12.13,-9.71 -22.83,-15.42 -50.82,-23.25 -83.25,-23.25l-2.37 0c-35.93,0 -67.22,10.65 -85.81,29.29 -13.32,13.32 -19.99,30 -19.8,49.58 0.61,58.7 58.16,68.32 104.4,76.02 50.07,8.02 73.76,16.02 73.1,39.68 -1.33,34.47 -48.04,38.22 -68.06,38.22 -19.93,0 -39.15,-4.72 -55.59,-13.63 -11.77,-6.34 -20.63,-15.66 -26,-22.39 -2.4,-3 -5.99,-4.71 -9.85,-4.71 -3.12,0 -6.1,1.14 -8.41,3.2l-12.98 11.53c-5.02,4.46 -5.68,12.07 -1.49,17.35 5.79,7.22 17.45,20.6 30.25,28.84 22.58,14.53 51.48,22.2 83.55,22.2 101.42,0 110.93,-60 111.43,-78.42 2.78,-63.51 -61.76,-74.34 -104.45,-81.51zm626.44 -86.25l-10.51 18.99c-0.55,0.97 -1.22,1.91 -2.04,2.63 -4.64,3.88 -10.32,4.21 -14.78,1.74 -4.05,-2.2 -5.54,-2.96 -6.12,-3.2 -8.91,-3.84 -18.59,-5.73 -28.98,-5.73 -41.12,0.44 -73.1,32.76 -73.1,73.56l0 143.56 0 8.57c0,4.41 -3.59,8.02 -8,8.02l-26.2 0c-4.41,0 -8,-3.61 -8,-8.02l0 -8.57 0 -242.66c0,-4.4 3.59,-8 8,-8l5.99 0c14.09,0 25.98,8.69 27.85,22.37 18.29,-18.41 44.59,-30.74 73.79,-30.74 0.97,-0.03 1.93,-0.03 2.87,-0.03 14.51,0 28.71,3.08 42.25,9.13 2.34,1.05 7.06,3.52 13.86,7.44 3.83,2.18 5.24,7.09 3.12,10.95zm273.04 -19.11l-23.5 0c-5.16,0 -9.73,1.1 -11.69,5.87l-80.98 195.67 -80.99 -195.17c-1.98,-4.75 -6.56,-6.37 -11.72,-6.37l-23.8 0c-2.48,0 -4.93,1.1 -6.36,3.12 -2.71,3.74 -3.26,7.39 -1.52,11.5l101.31 243.39c1.99,4.72 6.56,9.24 11.69,9.24l22.78 0c5.1,0 9.7,-5.02 11.69,-9.73l101.31 -242.9c1.79,-4.31 1.1,-7.5 -1.9,-11.53 -1.49,-1.99 -3.86,-3.09 -6.32,-3.09zm93.06 259.29c0,4.38 -3.56,7.96 -7.96,7.96l-26.25 0c-4.41,0 -7.97,-3.58 -7.97,-7.96l0 -256c0,-4.41 3.56,-7.97 7.97,-7.97l26.25 0c4.4,0 7.96,3.56 7.96,7.97l0 256z"/>
    <path class="fil2" d="M647.08 417.69c-22.67,-39.19 -66.32,-61.04 -120.39,-61.04 -80.93,0 -161.75,55.48 -193.63,127.31l-23.71 0c-21.42,0 -36.07,-24.35 -25.04,-42.72 0.09,-0.14 0.17,-0.27 0.25,-0.41 83.83,-137.95 305.47,-178.74 362.52,-23.14z"/>
    <path class="fil1" d="M647.05 417.61c0,0.03 0.02,0.03 0.02,0.06l66.95 0c-26.09,-74.09 -99.77,-124.39 -187.72,-124.39 -99.36,0 -195.54,60.06 -241.25,146.75 84.16,-137.29 305,-177.6 362,-22.42z"/>
    <path class="fil1" d="M335.27 607.26c0,-0.03 -0.02,-0.03 -0.02,-0.05l-67.14 0c26.25,75.33 99.79,124.3 187.53,124.3 98.33,0 193.57,-58.84 239.85,-144.13 -70.35,117.86 -291.88,180.92 -360.21,19.88z"/>
    <path class="fil1" d="M705.21 504.86c-9.9,-14.01 -25.92,-20.9 -43.98,-20.9l-328.16 0 -23.71 0c-20.02,0 -34.06,-21.15 -26.95,-38.93 -4.49,9.01 -8.46,18.33 -11.82,27.87 -5.93,16.76 -3.7,34 6.12,47.87 9.9,13.98 25.92,21.67 43.98,21.67l328.16 0 22.67 0c20.52,0 34.22,23.41 25.72,41.58 5.43,-10.34 10.21,-21.09 14.09,-32.12 5.93,-16.79 3.67,-33.17 -6.12,-47.04z"/>
    <path class="fil2" d="M671.52 542.44l-22.7 0c-31.73,71.61 -112.64,127.18 -193.29,127.18 -53.58,0 -97.68,-23.13 -120.29,-62.4 68.44,161.37 290.69,97.8 360.62,-20.49l0.24 -0.38c10.86,-18.46 -3.2,-43.91 -24.59,-43.91z"/>
    <path class="fil1" d="M812.95 188.21l-20.82 0 -323.28 0c-167.27,0 -303.34,136.1 -303.34,303.37l0 323.28 0 20.79 20.79 0 323.28 0c167.27,0 303.38,-136.07 303.38,-303.34l0 -323.28 0 -20.82zm-20.82 20.82l0 323.28c0,156.04 -126.51,282.55 -282.56,282.55l-323.28 0 0 -323.28c0,-156.05 126.51,-282.55 282.55,-282.55l323.28 0z"/>
   </g>
  </g>
 </g>
</svg>
