<?xml version="1.0" encoding="UTF-8"?>
<!DOCTYPE svg PUBLIC "-//W3C//DTD SVG 1.1//EN" "http://www.w3.org/Graphics/SVG/1.1/DTD/svg11.dtd">
<!-- Creator: CorelDRAW -->
<svg xmlns="http://www.w3.org/2000/svg" xml:space="preserve" width="51.5938mm" height="51.5937mm" version="1.1" style="shape-rendering:geometricPrecision; text-rendering:geometricPrecision; image-rendering:optimizeQuality; fill-rule:evenodd; clip-rule:evenodd"
viewBox="0 0 129.75 129.75"
 xmlns:xlink="http://www.w3.org/1999/xlink"
 xmlns:xodm="http://www.corel.com/coreldraw/odm/2003">
 <defs>
  <style type="text/css">
   <![CDATA[
    .fil0 {fill:#E6E6E6}
   ]]>
  </style>
 </defs>
 <g id="Capa_x0020_1">
  <metadata id="CorelCorpID_0Corel-Layer"/>
  <path class="fil0" d="M92.17 21.82c1.17,-0.33 1.58,0.21 2.32,1.38l21.32 33.23c4.31,6.71 2.68,9.82 1.46,15.87l-3.22 14.88c-0.6,2.88 -1.31,6.37 -4.58,9.38 -7.71,7.11 -20.37,3 -21.88,-8.42 -0.26,-1.99 0.03,-3.61 0.36,-5.12 0.75,-3.34 1.41,-6.57 2.17,-9.92l1.05 -4.97c0.16,-1.78 -1.81,-4.15 -2.92,-5.88 -5.17,-8.06 -10.33,-16.11 -15.5,-24.17 -1.92,-2.99 -1.45,-2.97 1.42,-4.81 2.78,-1.78 17.23,-11.25 18.01,-11.47zm2.59 7.57l-16.92 10.87 -2.56 -3.98 16.93 -10.87 2.55 3.99zm19.59 41.21c-7.08,-2.19 -8.69,-10.59 -2.79,-15.02 2.53,3.98 4.73,6.57 3.61,11.55 -0.16,0.74 -0.56,2.97 -0.83,3.47zm-4.47 -17.63c-7.43,5.24 -6.62,16.56 2.47,20.25 0.48,0.2 0.96,0.29 1.38,0.46 -0.06,0.71 -0.34,1.7 -0.51,2.46l-1.64 7.53c-0.76,3.48 -1.11,7.13 -3.48,9.83 -5.96,6.78 -16.77,3.02 -17.46,-6.03 -0.19,-2.51 1.18,-7.49 1.75,-10.1 0.37,-1.72 0.74,-3.32 1.1,-5.05 1.21,-5.86 1.42,-5.41 -2.13,-10.95l-11.86 -18.48 16.93 -10.87 13.44 20.96z"/>
  <path class="fil0" d="M126.77 16.7c1.26,-0.22 1.46,0.31 2.26,1.56l0.72 1.12 0 8.17c-3.53,2.24 -15.34,9.62 -15.81,10.27 0.53,1.13 9.24,14.47 10.69,16.74 1.13,1.76 2.33,3.84 3.46,5.51 0.92,1.36 0.7,3.13 0.46,4.22l-2.55 11.66c-0.47,2.21 -1.4,5.06 -0.66,8.03 0.65,2.57 2.34,4.98 4.4,6.35l0 3.48c-5.39,-2.48 -9.16,-8.57 -7.33,-15.95l3.2 -14.89c0.11,-1.76 -1.89,-4.2 -2.97,-5.88 -5.17,-8.06 -10.33,-16.11 -15.5,-24.17 -1.95,-3.04 -1.37,-2.9 1.6,-4.81 2.68,-1.72 17.33,-11.3 18.03,-11.42zm-0.07 3.67l2.51 3.94 -16.84 10.78c-0.29,-0.1 0.02,0.28 -0.43,-0.33l-2.24 -3.52c0.47,-0.61 13.03,-8.46 15.89,-10.31l0.78 -0.49c0.25,-0.1 0.17,-0.05 0.32,-0.05z"/>
  <path class="fil0" d="M128.09 60.06c-1.14,-1.67 -2.33,-3.75 -3.46,-5.51 -1.45,-2.27 -10.16,-15.61 -10.69,-16.74 0.47,-0.65 12.28,-8.03 15.81,-10.27l0 0.2 -15.71 10.06c3.72,6.11 8.48,13.24 12.49,19.49l1.3 2.02c0.06,0.1 0.15,0.24 0.19,0.35 0.16,0.39 0.08,0.21 0.08,0.41z"/>
  <path class="fil0" d="M112.38 35.08c-0.29,-0.1 0.02,0.28 -0.43,-0.33l-2.24 -3.52c0.47,-0.61 13.03,-8.46 15.89,-10.31l0.78 -0.49c0.25,-0.1 0.17,-0.05 0.32,-0.05l-16.87 10.81 2.54 3.9z"/>
  <g id="_2439657775360">
   <path class="fil0" d="M-0 19.37l20.6 32.11c4.15,6.47 2.59,9.75 1.31,15.82 -0.82,3.9 -3.49,17.21 -4.59,19.78 -0.61,1.43 -1.79,3.18 -3.24,4.48 -4.35,3.9 -9.73,4.24 -14.07,2.24l0 -3.48c0.43,0.28 0.87,0.52 1.33,0.71 6.4,2.64 12.59,-1.59 13.73,-6.95 0.2,-0.96 3.34,-14.98 3.31,-15.55 -1.88,-0.6 -3.64,-1.25 -5.48,-3.11 -4.82,-4.89 -4.51,-13.09 1.7,-17.56l-13.38 -20.91 -1.21 0.77 0 -8.36zm19.06 46.09c-5.58,-0.84 -9.57,-10.08 -2.81,-14.95 1.79,2.28 3.56,5.36 3.86,7.93 0.21,1.74 -0.45,5.48 -1.05,7.02z"/>
   <path class="fil0" d="M-0 27.54c0.32,-0.2 0.58,-0.37 0.75,-0.48 0.73,-0.48 0.14,-0.12 0.46,-0.1l-1.21 0.77 0 -0.2z"/>
  </g>
  <path class="fil0" d="M36.81 89.26c0.95,-0.27 1.28,0.18 1.89,1.12l17.37 27.08c3.36,5.23 2.29,7.77 1.33,12.29l-6.59 0c-5.01,-3.84 -4.86,-11.37 0.44,-15.11l-10.95 -17.08 -13.8 8.86 9.66 15.06c2.76,4.29 2.74,4.17 1.87,8.27l-2.62 0 0.58 -2.74c0.13,-1.45 -1.48,-3.38 -2.38,-4.79 -4.21,-6.57 -8.42,-13.13 -12.63,-19.7 -1.56,-2.43 -1.18,-2.42 1.16,-3.92 2.26,-1.45 14.05,-9.17 14.68,-9.35zm2.11 6.17l-13.79 8.86 -2.08 -3.24 13.8 -8.86 2.08 3.25zm15.97 33.59c-5.77,-1.79 -7.08,-8.63 -2.27,-12.24 2.06,3.24 3.85,5.35 2.95,9.41 -0.13,0.6 -0.46,2.42 -0.67,2.83z"/>
  <path class="fil0" d="M65.01 85.08c1.03,-0.18 1.19,0.25 1.84,1.27l17.37 27.08c3.39,5.28 2.11,7.95 1.07,12.9 -0.16,0.77 -0.41,1.99 -0.71,3.42l-2.63 0c0.28,-1.33 0.47,-2.28 0.46,-2.41 -1.53,-0.49 -2.97,-1.02 -4.46,-2.54 -3.93,-3.99 -3.68,-10.66 1.38,-14.31l-10.9 -17.04c-0.26,-0.01 0.22,-0.31 -0.38,0.08 -1.64,1.07 -13.08,8.18 -13.49,8.76 0.43,0.92 7.53,11.8 8.71,13.64 0.92,1.44 1.89,3.13 2.82,4.49 0.75,1.11 0.57,2.55 0.38,3.44l-1.28 5.89 -2.6 0 1.49 -6.96c0.09,-1.43 -1.54,-3.42 -2.42,-4.79 -4.21,-6.57 -8.42,-13.13 -12.63,-19.7 -1.59,-2.48 -1.11,-2.37 1.3,-3.92 2.18,-1.4 14.13,-9.21 14.69,-9.31zm-0.05 2.99l2.05 3.21 -13.72 8.79c-0.24,-0.08 0.02,0.23 -0.35,-0.27l-1.82 -2.87c0.38,-0.49 10.62,-6.89 12.95,-8.41l0.64 -0.4c0.21,-0.08 0.14,-0.04 0.26,-0.04zm18.02 36.76c-4.55,-0.68 -7.8,-8.21 -2.29,-12.18 1.46,1.85 2.9,4.37 3.15,6.46 0.17,1.41 -0.37,4.46 -0.85,5.72z"/>
  <path class="fil0" d="M66.09 120.43c-0.93,-1.36 -1.9,-3.05 -2.82,-4.49 -1.19,-1.85 -8.28,-12.72 -8.71,-13.64 0.42,-0.58 11.85,-7.69 13.49,-8.76 0.59,-0.39 0.11,-0.09 0.38,-0.08l-13.79 8.83c3.03,4.98 6.91,10.79 10.18,15.88l1.06 1.64c0.05,0.09 0.12,0.2 0.16,0.29 0.13,0.32 0.06,0.17 0.07,0.33z"/>
  <path class="fil0" d="M53.28 100.07c-0.24,-0.08 0.02,0.23 -0.35,-0.27l-1.82 -2.87c0.38,-0.49 10.62,-6.89 12.95,-8.41l0.64 -0.4c0.21,-0.08 0.14,-0.04 0.26,-0.04l-13.75 8.81 2.07 3.18z"/>
  <g id="_2439657781600">
   <path class="fil0" d="M57.4 0c-0.05,0.21 -0.09,0.43 -0.14,0.65l-2.62 12.13c-0.49,2.35 -1.07,5.19 -3.73,7.64 -6.28,5.79 -16.6,2.45 -17.83,-6.87 -0.21,-1.62 0.02,-2.94 0.3,-4.17 0.61,-2.72 1.15,-5.35 1.77,-8.08l0.28 -1.31 2.62 0 -0.14 0.65c-0.29,1.41 -0.59,2.71 -0.9,4.12 -0.46,2.13 -1.58,6.19 -1.42,8.23 0.56,7.37 9.37,10.44 14.23,4.91 1.93,-2.2 2.22,-5.17 2.84,-8.01l1.33 -6.14c0.14,-0.62 0.36,-1.43 0.41,-2.01 -0.34,-0.14 -0.73,-0.21 -1.12,-0.37 -0.93,-0.37 -1.75,-0.85 -2.46,-1.39l6.59 0z"/>
   <path class="fil0" d="M84.58 0c-0.94,4.5 -2.35,11.11 -3.03,12.7 -0.5,1.17 -1.46,2.59 -2.64,3.65 -7.95,7.12 -20.13,-0.31 -17.44,-11.17l1.11 -5.18 2.6 0 -0.79 3.62c-0.38,1.8 -1.14,4.12 -0.54,6.55 0.63,2.53 2.52,4.87 4.66,5.76 5.21,2.15 10.26,-1.3 11.19,-5.66 0.12,-0.57 1.5,-6.74 2.24,-10.26l2.63 0z"/>
  </g>
  <circle class="fil0" cx="39.92" cy="43.25" r="4.01"/>
  <circle class="fil0" cx="49.23" cy="72.51" r="7.33"/>
  <circle class="fil0" cx="106.49" cy="12.15" r="5.09"/>
  <circle class="fil0" cx="111.35" cy="114.68" r="5.12"/>
  <circle class="fil0" cx="20.64" cy="12.63" r="4.01"/>
 </g>
</svg>
