<?xml version="1.0" encoding="UTF-8"?>
<svg id="Capa_2" data-name="Capa 2" xmlns="http://www.w3.org/2000/svg" viewBox="0 0 765.64 116.07">
  <defs>
    <style>
      .cls-1 {
        fill: #fff;
      }

      .cls-2 {
        fill: #0a75b3;
      }
    </style>
  </defs>
  <g id="Capa_1-2" data-name="Capa 1">
    <path class="cls-2" d="m0,0h79.68s33.3,3.33,36.39,34.49v81.58H34.01S5.71,114.41,0,80.16V0Z"/>
    <path class="cls-1" d="m53.28,52.8v-15.94s3.09-19.98,22.36-19.03c0,0,18.79-1.43,22.6,21.17,0,0,2.14,10.94-8.56,19.03,0,0,8.67,5.71,8.74,18.08,0,0-2.14,20.93-22.56,21.64,0,0-10.2,1.19-17.81-8.32,0,0-7.14,9.61-17.36,8.37,0,0-20.69.9-22.6-23.12,0,0,0-18.55,18.55-21.65l16.65-.24Zm9.99.24h15.46s11.18-2.14,10.23-12.61c0,0,1.01-11.89-12.82-13.32,0,0-10.73-.71-12.87,9.51v16.41Zm-9.69,9.29h-15.46s-11.18,2.14-10.23,12.61c0,0-1.01,11.89,12.81,13.32,0,0,10.73.71,12.87-9.51v-16.41Zm9.69,16.41c2.14,10.23,12.87,9.51,12.87,9.51,13.82-1.43,12.82-13.32,12.82-13.32.95-10.47-10.23-12.61-10.23-12.61h-15.46v16.41Z"/>
    <path class="cls-2" d="m159.64,39.82c17,.45,15.87,13.6,15.87,13.6.68,10.66-7.48,12.92-7.48,12.92,10.2,2.27,9.07,13.15,9.07,13.15-.45,14.51-15.42,15.67-15.42,15.67h-26.98v-55.34h24.94Zm-14.06,9.4v13.5h12.02s8.16-1.25,7.48-6.75c0,0,.68-6.19-7.71-6.75h-11.79Zm0,22.34v14.28h14.06s7.71-.91,7.26-7.14c0,0,0-6.69-8.39-7.14h-12.92Z"/>
    <path class="cls-2" d="m201.36,51.38c16.78,1.59,15.64,12.92,15.64,12.92v29.47c-14.06,5.44-26.75,1.38-26.75,1.38-8.62-2.47-8.16-13.4-8.16-13.4.91-13.83,14.06-12.47,14.06-12.47h10.88v-5.44c-4.99-6.35-19.95-1.13-19.95-1.13l-1.81-9.07c6.8-2.49,16.1-2.27,16.1-2.27Zm-3.85,25.17c-4.84,0-5.59,5.78-5.59,5.78,0,4.27,2.64,4.87,2.64,4.87,4.76,2.04,12.47,0,12.47,0v-10.66h-9.52Z"/>
    <path class="cls-2" d="m565.25,51.38c16.78,1.59,15.64,12.92,15.64,12.92v29.47c-14.06,5.44-26.75,1.38-26.75,1.38-8.62-2.47-8.16-13.4-8.16-13.4.91-13.83,14.06-12.47,14.06-12.47h10.88v-5.44c-4.99-6.35-19.95-1.13-19.95-1.13l-1.81-9.07c6.8-2.49,16.1-2.27,16.1-2.27Zm-3.85,25.17c-4.84,0-5.59,5.78-5.59,5.78,0,4.27,2.64,4.87,2.64,4.87,4.76,2.04,12.47,0,12.47,0v-10.66h-9.52Z"/>
    <path class="cls-2" d="m225.02,54.63v40.53h10.28v-32.45s1.36-2.04,7.56-1.89c0,0,8.01-.91,9.37,6.05v28.29h10.13v-30.25s.3-12.25-14.96-13.53c0,0-14.51-.83-22.37,3.26Z"/>
    <path class="cls-2" d="m299.08,62.72l1.81-9.14s-13-5.14-24.34,1.06c0,0-8.92,4.41-8.16,18.6,0,0-1.66,17.12,12.09,21.93,0,0,9.98,3,20.41-1.08l-1.21-8.24s-5.44,1.29-9.52,1.13c0,0-11.94-.57-12.24-12.98,0,0-.15-13.47,12.09-12.87,0,0,5.14-.6,9.07,1.59Z"/>
    <path class="cls-2" d="m617.85,62.72l1.81-9.14s-13-5.14-24.34,1.06c0,0-8.92,4.41-8.16,18.6,0,0-1.66,17.12,12.09,21.93,0,0,9.98,3,20.41-1.08l-1.21-8.24s-5.44,1.29-9.52,1.13c0,0-11.94-.57-12.24-12.98,0,0-.15-13.47,12.09-12.87,0,0,5.14-.6,9.07,1.59Z"/>
    <path class="cls-2" d="m721.01,62.72l1.81-9.14s-13-5.14-24.34,1.06c0,0-8.92,4.41-8.16,18.6,0,0-1.66,17.12,12.09,21.93,0,0,9.97,3,20.4-1.08l-1.21-8.24s-5.44,1.29-9.52,1.13c0,0-11.94-.57-12.24-12.98,0,0-.15-13.47,12.09-12.87,0,0,5.14-.6,9.07,1.59Z"/>
    <path class="cls-2" d="m324.47,60.68s8.73.34,9.3,7.94v11.22s-1.59,7.03-9.3,7.03c0,0-7.37.11-9.41-6.46v-12.81s.57-6.91,9.41-6.91Zm-10.32-7.14c-11.79,4.87-9.52,21.08-9.52,21.08.34,12.92,3.85,15.64,3.85,15.64,4.08,7.37,15.93,6.35,15.93,6.35,22.84-1.02,19.33-23.38,19.33-23.38-.23-25.42-19.33-21.66-19.33-21.66-6.43-.23-10.26,1.96-10.26,1.96Z"/>
    <path class="cls-2" d="m746.18,60.68s8.73.34,9.3,7.94v11.22s-1.59,7.03-9.3,7.03c0,0-7.37.11-9.41-6.46v-12.81s.57-6.91,9.41-6.91Zm-10.31-7.14c-11.79,4.87-9.52,21.08-9.52,21.08.34,12.92,3.86,15.64,3.86,15.64,4.08,7.37,15.93,6.35,15.93,6.35,22.84-1.02,19.33-23.38,19.33-23.38-.23-25.42-19.33-21.66-19.33-21.66-6.43-.23-10.26,1.96-10.26,1.96Z"/>
    <path class="cls-2" d="m396.91,35.28h9.75v58.27s-3.17,2.27-14.85,2.49c0,0-10.2,1.36-15.53-3.85,0,0-6.8-5.1-6.91-19.04,0,0-2.27-17.46,15.3-21.2l12.24.17v-16.83Zm-11,26.53c-6.69,2.15-6.46,11.22-6.46,11.22-.57,8.62,4.87,12.81,4.87,12.81,5.78,2.15,12.7,0,12.7,0v-24.03c-5.21-1.81-11.11,0-11.11,0Z"/>
    <path class="cls-2" d="m435,86.98c4.65,0,12.58-2.83,12.58-2.83l1.7,9.75c-4.76,2.38-14.96,2.31-14.96,2.31-23.92.73-21.2-22.72-21.2-22.72-1.7-23.81,20.63-22.11,20.63-22.11,23.58,2.15,16.44,26.53,16.44,26.53h-26.19c.23,9.64,11,9.07,11,9.07Zm-11.68-17.57h17.91s.91-8.84-8.28-9.3c0,0-8.5-.79-9.64,9.3Z"/>
    <path class="cls-2" d="m457.45,35.28h9.86v46.82s-.79,6.46,6.24,4.08l2.15,8.84s-7.14,2.61-12.02,0c0,0-5.1-.91-6.23-10.43v-49.31Z"/>
    <path class="cls-2" d="m500.64,39.82h25.17s17.34-.34,17.34,18.02c0,0,1.25,17.46-15.87,18.36h-16.32v18.82h-10.31v-55.21Zm10.09,26.87h15.76c6.69-1.25,6.23-9.3,6.23-9.3.34-8.28-7.6-8.05-7.6-8.05h-14.4v17.34Z"/>
    <rect class="cls-2" x="625.56" y="52.52" width="9.52" height="42.51"/>
    <rect class="cls-2" x="674.19" y="52.52" width="9.52" height="42.51"/>
    <polygon class="cls-2" points="625.56 47.19 634.29 47.19 642.56 35.4 632.59 35.4 625.56 47.19"/>
    <path class="cls-2" d="m684.85,39.46c0-3.26-2.64-5.89-5.89-5.89s-5.89,2.64-5.89,5.89,2.64,5.89,5.89,5.89,5.89-2.64,5.89-5.89Z"/>
    <path class="cls-2" d="m644.04,95.03v-47.84s0-21.54,25.96-12.7l-1.7,8.84s-10.09-4.45-14.51,2.02l-.23,7.16h14.62v9.52h-14.51v32.99h-9.64Z"/>
  </g>
</svg>