<?xml version="1.0" encoding="UTF-8"?>
<svg id="Capa_2" data-name="Capa 2" xmlns="http://www.w3.org/2000/svg" viewBox="0 0 1208.67 283.48">
  <defs>
    <style>
      .cls-1 {
        fill: #006937;
      }

      .cls-2 {
        fill: #76bc21;
      }
    </style>
  </defs>
  <g id="Capa_1-2" data-name="Capa 1">
    <g>
      <path class="cls-1" d="m313.06,183.29h-.36c-3.57,6.66-11.17,14.4-24.13,14.4-19.62,0-27.07-14.05-19.35-50.41,6.43-30.25,15.37-52.04,39.32-52.04,8.11,0,16.36,2.71,18.99,13.14h.36l8.88-41.77h29.17l-27.32,128.55h-28.09l2.53-11.88Zm3.03-66.8c-10.62,0-13.65,11.7-17.4,29.36-3.32,15.66-6.13,30.6,4.84,30.6,8.65,0,12.66-10.44,16.67-29.34,3.68-17.29,5.79-30.61-4.12-30.61"/>
      <path class="cls-1" d="m430.44,195.17h-28.08l2.44-11.52h-.37c-5.97,8.64-15.58,14.04-26.38,14.04-16.57,0-23.63-8.28-19.65-27.01l15.5-72.92h29.17l-14.12,66.44c-1.5,7.02.69,11.16,6.08,11.16s11.36-4.31,13.39-13.86l13.54-63.74h29.17l-20.7,97.41Z"/>
      <path class="cls-1" d="m472.33,66.62h29.17l-8.87,41.76h.35c7.08-10.44,16.47-13.14,24.58-13.14,23.94,0,23.63,21.79,17.2,52.04-7.73,36.37-21.15,50.4-40.78,50.4-12.96,0-17.26-7.73-18.01-14.4h-.35l-2.52,11.88h-28.09l27.31-128.55Zm15.73,109.82c10.99,0,14.52-14.94,17.85-30.6,3.75-17.65,5.69-29.35-4.93-29.35-9.9,0-13.44,13.32-17.12,30.61-4.01,18.9-4.43,29.35,4.21,29.35"/>
      <path class="cls-1" d="m128.23,97.6h28.08l-2.91,13.68h.36c5.62-8.64,14.62-16.21,26.87-16.21,1.44,0,2.88,0,4.59.36l-5.82,27.38c-2.76-.55-5.07-.72-7.93-.72-11.72,0-20.32,4.86-23.04,17.66l-11.74,55.29h-29.19l20.72-97.43Z"/>
      <path class="cls-1" d="m179.97,146.46c6.18-29.09,17.38-51.39,51-51.39,35.58,0,35.45,21.76,29.25,50.87-6.18,29.11-17.38,51.38-50.99,51.38-35.58,0-35.44-21.74-29.26-50.86m47.12-32.33c-8.63,0-12.93,8.44-17.94,31.99-5.05,23.71-4.31,32.16,4.29,32.16s12.53-8.08,17.59-31.97c5.13-24.1,5.05-32.17-3.93-32.17"/>
      <path class="cls-1" d="m41.13,66.56h46.78c31.84,0,33.06,23.04,29.67,39.04-4.9,23.03-19.32,39.23-49.54,39.23h-13.32l-10.67,50.2H13.82l27.31-128.47Zm18.32,55.96h8.29c12.05,0,16.53-7.55,18.37-16.19,2.1-9.91.48-17.47-11.77-17.47h-7.72l-7.17,33.66Z"/>
      <path class="cls-1" d="m810.1,146.46c6.18-29.09,17.38-51.39,50.99-51.39,35.59,0,35.45,21.76,29.25,50.87-6.17,29.11-17.37,51.38-50.98,51.38-35.57,0-35.45-21.74-29.25-50.86m47.11-32.33c-8.63,0-12.93,8.44-17.94,31.99-5.05,23.71-4.31,32.16,4.29,32.16s12.52-8.08,17.59-31.97c5.12-24.1,5.04-32.17-3.94-32.17"/>
      <path class="cls-1" d="m698.15,95.02c-10.81,0-20.46,5.39-26.43,14.06h-.37l2.46-11.54h-28.13l-20.73,97.52h29.21l13.56-63.81c2.04-9.55,7.82-13.89,13.41-13.89s7.6,4.16,6.11,11.19l-14.14,66.51h29.21l15.53-73.01c3.97-18.75-3.1-27.03-19.68-27.03"/>
      <path class="cls-1" d="m596.55,95.3c-12.07,0-20.71,1.62-28.53,6.3-7.84,4.7-13.52,12.78-16.52,26.11h25.92c1.97-8.46,5.34-13.33,13.45-13.33,6.48,0,8.38,3.79,7.13,9.72-1.59,7.38-3.53,8.83-12.83,11.16-8.58,2.15-19.75,3.96-27.79,7.93-8.05,3.97-14.74,13.5-17.16,24.84-4.48,21.07,3.23,29.72,19.62,29.72,9.72,0,19.97-5.05,25.75-13.7h.38c-.62,3.8-1.11,7.73-.75,11.18h28.09c-2.53-4.32-.54-13.67,1.05-21.06l10.62-50.06c4.36-20.51-4.51-28.8-28.44-28.8m-7.29,68.94c-2.07,9.73-8.41,13.33-14.54,13.33-5.37,0-7.45-4.68-5.8-12.43,1.14-5.38,3.23-8.45,6.77-10.79,3.18-2.15,7.19-2.34,17.39-7.18-.83,3.94-2.09,9.01-3.82,17.08"/>
      <path class="cls-1" d="m777.65,134.39c3.03-14.21,1.06-20.15-6.68-20.15-9.71,0-13.56,12.24-17.81,32.22-4.66,21.95-5.54,32.01,4.16,32.01,8.65,0,11.87-5.93,15.88-23.03h27c-6.58,30.05-21.01,42.11-47.46,42.11-36.7,0-34.11-25.73-27.95-54.69,5.79-27.36,18.05-47.7,49.72-47.7s35.1,16.02,30.15,39.23h-27Z"/>
      <path class="cls-1" d="m15.52,254.93h5.96l-.97,4.56c-1.04,4.86-4.98,7.17-7.12,7.17-5.21,0-4.76-6.78-2.47-17.58,2.35-11.17,5.08-15.68,9.49-15.68,3.63,0,4.24,4.2,3.54,7.52h8.67c1.93-9.08-1-14.17-10.93-14.17-11.55,0-16.71,7.72-19.9,22.8-3.29,15.49-2.87,23.78,8.23,23.78,4.23,0,7.63-1.51,10.51-5.03h.11l-.87,4.17h6.65l5.15-24.19h-14.63l-1.42,6.66Zm40.99-17.02c-.51-.06-1.05-.11-1.56-.11-3.57,0-6.49,2.13-8.92,5.36h-.13l.94-4.49h-8.26l-7.18,33.79h8.67l4.31-20.3c.97-4.52,4.68-6.09,7.69-6.09.89,0,1.81.08,2.69.13l1.76-8.28Zm20.53.76l-4.76,22.38c-.79,3.78-2.84,5.6-5.78,5.6-2.56,0-3.42-1.3-2.69-4.71l4.95-23.27h-8.67l-5.31,25.04c-1.41,6.65,1.15,9.61,6.55,9.61,3.65,0,7.11-1.51,9.63-4.84h.12l-.84,3.98h8.29l7.18-33.79h-8.67Zm30.69-.87c-3.39,0-6.06,1.29-8.58,4.44h-.14l.75-3.57h-8.27l-9.51,44.81h8.65l3.02-14.2h.13c1.22,2.7,3.15,4.04,6.38,4.04,7.14,0,11.51-5.22,14.18-17.78,2.66-12.54.5-17.74-6.6-17.74m-2.07,17.74c-1.56,7.37-3.12,11.12-6.88,11.12s-3.78-3.74-2.21-11.12c1.55-7.34,3.11-11.13,6.94-11.13s3.71,3.79,2.15,11.13m29.57-17.74c-9.9,0-14.64,6.19-17.08,17.74-2.49,11.77-.92,17.97,9.52,17.78,9.93,0,14.65-6.21,17.1-17.78,2.5-11.72.93-17.94-9.54-17.74m.86,17.74c-1.77,8.41-3.64,11.87-7.15,11.87-4.25,0-3.6-4.97-2.12-11.87,1.46-6.91,2.9-11.83,7.17-11.83,3.52,0,3.91,3.45,2.1,11.83m51.18-27.93h-15.82l-9.54,44.84h9.05l3.81-17.92h4.84c8.52,0,15.13-4.2,17.1-13.48,1.42-6.73-.28-13.45-9.45-13.45m-.17,14.12c-.95,4.57-3.85,6.72-7.45,6.72h-4.01l2.89-13.62h3.76c4.53,0,5.75,2.52,4.8,6.91m31.49-3.82c-.49-.06-1.04-.11-1.56-.11-3.57,0-6.47,2.13-8.93,5.36h-.12l.96-4.49h-8.29l-7.18,33.79h8.67l4.32-20.3c.95-4.52,4.67-6.09,7.68-6.09.88,0,1.81.08,2.69.13l1.76-8.28Zm15.33-.11c-9.92,0-14.63,6.19-17.08,17.74-2.49,11.77-.93,17.97,9.53,17.78,9.92,0,14.63-6.21,17.1-17.78,2.47-11.72.91-17.94-9.55-17.74m.85,17.74c-1.77,8.41-3.62,11.87-7.14,11.87-4.26,0-3.59-4.97-2.13-11.87,1.47-6.91,2.91-11.83,7.18-11.83,3.52,0,3.89,3.45,2.09,11.83m50.5-17.74c-4.09,0-7.62,1.81-9.67,5.36h-.14c-.2-3.43-2.67-5.36-6.63-5.36-3.65,0-6.63,1.25-9.45,4.33h-.14l.75-3.46h-8.3l-7.17,33.79h8.65l4.71-22.24c.85-3.91,2.99-5.8,5.78-5.8,2.46,0,3.05,1.61,2.46,4.44l-5.01,23.6h8.67l4.71-22.24c.83-3.91,2.98-5.8,5.74-5.8,2.45,0,3.05,1.61,2.47,4.44l-5.03,23.6h8.65l5.22-24.57c1.38-6.51-.53-10.09-6.25-10.09m26.37,0c-11.7,0-15.22,8.4-17.15,17.42-1.78,8.44-3.34,18.1,9.24,18.1,8.12,0,12.83-4.4,14.82-12.27h-7.77c-1.4,4.19-3.06,6.36-5.96,6.36-3.19,0-3.44-3.9-2.58-7.84l.57-2.71h17.14l.41-1.93c2.2-10.38,1.39-17.13-8.72-17.13m1.11,13.92h-8.84l.27-1.32c.67-3.13,2.43-6.69,5.89-6.69s3.59,2.87,2.69,8.01m33.51-13.81c-.5-.06-1.04-.11-1.54-.11-3.58,0-6.48,2.13-8.95,5.36h-.13l.99-4.49h-8.29l-7.18,33.79h8.65l4.33-20.3c.95-4.52,4.67-6.09,7.68-6.09.89,0,1.8.08,2.7.13l1.75-8.28Zm14.41-10.79h-8.68l-1.57,7.4h8.66l1.58-7.4Zm-18.32,45.34h8.68l7.19-33.79h-8.68l-7.19,33.79Zm43.91-21.64c1.68-7.93-1.38-13.02-9.35-13.02s-14.51,3.88-17.47,17.74c-2.89,13.58.51,17.78,9.15,17.78,9.18,0,13.94-4.96,15.79-13.83h-8.26c-1.16,5.49-2.99,7.92-5.88,7.92-3.91,0-3.92-3.46-2.13-11.77,1.64-7.8,3.15-11.58,7.39-11.58,3.29,0,3.17,3.52,2.48,6.76h8.28Zm19.07-13.02c-6.52,0-12.4,2.64-14.07,10.41l-.17.82h7.8l.19-.93c.56-2.66,2.32-4.39,4.93-4.39,2.89,0,3.71,1.55,3.14,4.13-.47,2.25-1.56,3.26-4.3,3.94l-5.16,1.33c-6.34,1.63-9.45,4.21-10.8,10.56-.95,4.5.09,9.66,6.1,9.66,4.16,0,6.82-.86,9.54-4.4h.14c0,1.12-.02,2.44.3,3.53h8.29c-.49-1.96-.33-3.41.34-6.55l3.76-17.77c1.3-6.07.25-10.34-10.05-10.34m-1.22,24.41c-.79,3.7-4.11,5.21-6.44,5.21s-2.83-2.14-2.27-4.71c.62-3.01,2.37-4.7,6.04-5.43,1.12-.26,2.69-.83,4.06-1.73l-1.4,6.66Z"/>
      <path class="cls-2" d="m1114.07,57.58c-48.19,47.3-91.21,99.51-129.88,154.83l.02.03c68.9-59.86,143.84-112.73,224.46-155.6v-.1c-31.54-1.21-63.1-.97-94.6.83"/>
      <path class="cls-1" d="m955.95,243.63h.04c41.79-68.74,90.26-133.36,146.56-190.93-6.8-17.58-20.77-52.7-20.77-52.7-19.07,21.53-35.92,44.8-51.47,68.99-30.01,6.87-59.6,15.49-88.29,26.8,0,0,36.41,24.71,54.26,37.45-15.14,34.97-38.93,106.12-40.33,110.39m199.4-9.99l.03-.03c-10.27-38.2-20.43-76.44-30.47-114.75-24.85,16.07-49.16,32.9-72.91,50.55,34.78,20.86,69.19,42.34,103.35,64.23"/>
    </g>
  </g>
</svg>