<?xml version="1.0" encoding="UTF-8"?>
<svg id="Capa_2" data-name="Capa 2" xmlns="http://www.w3.org/2000/svg" viewBox="0 0 951.35 258.95">
  <defs>
    <style>
      .cls-1 {
        fill: #b2006b;
      }
    </style>
  </defs>
  <g id="Capa_1-2" data-name="Capa 1">
    <path class="cls-1" d="m31.06,206.42c1.39,1.59,2.85,3.08,4.74,4.14,20.86,11.73,43.16,15.84,66.63,11.32,33.31-6.43,57.04-25.63,71.93-55.97.32-.64.56-1.31.84-1.97-.08-.04-.17-.08-.25-.13-.36.43-.71.86-1.07,1.29-15.15,18.2-34.54,26.84-58.1,24.21-24.49-2.73-41.9-16.08-52.46-38.22-5.96-12.5-6.86-25.81-5.12-39.37,3.25-25.37,13.92-47.08,32.78-64.43,20.8-19.12,45.43-28.36,73.78-27.42,10.48.35,20.62,2.4,30.49,5.85,1.14.4,2.28.84,3.42,1.25-.5-.73-1.1-1.24-1.73-1.72C169.1,4.07,137.78-3.65,103.35,1.58c-29.17,4.43-53.58,18.19-72.72,40.43C5.77,70.87-3.86,104.61,1.38,142.37c3.38,24.3,13.55,45.59,29.68,64.05"/>
    <path class="cls-1" d="m146.18,28.9c-26.51,5.02-47.36,19.11-62.86,41.14-3.62,5.15-6.68,10.62-8.95,16.58,2.11-2.47,4.31-4.85,6.61-7.14,18.21-18.17,46.38-23.63,70.13-13.79,24.9,10.32,41.68,35.71,40.61,63.44-.67,17.42-4.66,33.84-13.42,48.87-18.73,32.15-46.82,49.82-83.93,52.77-12.45.99-24.73-.75-36.66-4.6-2.27-.73-4.51-1.53-6.8-2.3-.02.54.37.65.61.85,6.6,5.33,13.71,9.9,21.33,13.61,22.86,11.14,46.92,14.63,72.02,10.94,27.07-3.98,49.97-16.24,69.15-35.54,9.75-9.8,17.42-21.14,23.3-33.65,11.07-23.55,14.31-48.25,10.18-73.85-3.89-24.14-14.26-45.27-30.69-63.4-.73-.81-1.5-1.54-2.46-2.1-21.27-12.38-44.1-16.36-68.19-11.8"/>
    <path class="cls-1" d="m308.88,26.54h46.24s25.06.86,25.93,24.2c0,0,1.3,14.69-12.96,21.18,0,0,19.45,5.19,15.99,26.36,0,0-.43,20.74-27.23,23.34h-47.97V26.54Zm20.31,39.33h18.37c14.69-1.08,12.75-11.02,12.75-11.02.22-11.67-10.59-10.8-10.59-10.8h-20.53v21.82Zm0,38.89h21.82c13.61-.65,12.53-11.02,12.53-11.02.22-13.83-13.18-12.32-13.18-12.32h-21.18v23.34Z"/>
    <path class="cls-1" d="m393.8,53.98s16.85-7.78,32.63-7.78c0,0,32.84-2.59,33.49,31.55v43.86h-19.45v-7.56s-7.35,9.51-22.9,9.51c0,0-27.01.86-27.66-22.47,0,0-2.81-23.12,29.17-24.85,0,0,14.69,0,21.18,2.81,0,0,1.45-15.56-15.37-15.77,0,0-13.37-.86-26.11,5.4l-4.97-14.69Zm31.08,34.57c-16.67.22-15.1,11.24-15.1,11.24,1.94,10.16,15.1,8.86,15.1,8.86,17.9-.65,15.16-17.72,15.16-17.72-6.27-2.38-15.16-2.38-15.16-2.38Z"/>
    <path class="cls-1" d="m494.35,162.67s16.85-7.78,32.63-7.78c0,0,32.84-2.59,33.49,31.55v43.86h-19.45v-7.56s-7.35,9.51-22.9,9.51c0,0-27.01.86-27.66-22.47,0,0-2.81-23.12,29.17-24.85,0,0,14.69,0,21.18,2.81,0,0,1.45-15.56-15.37-15.77,0,0-13.37-.86-26.12,5.4l-4.97-14.69Zm31.08,34.57c-16.67.22-15.09,11.24-15.09,11.24,1.95,10.16,15.09,8.86,15.09,8.86,17.91-.65,15.16-17.72,15.16-17.72-6.27-2.38-15.16-2.38-15.16-2.38Z"/>
    <path class="cls-1" d="m649.91,162.67s16.85-7.78,32.63-7.78c0,0,32.84-2.59,33.49,31.55v43.86h-19.45v-7.56s-7.35,9.51-22.9,9.51c0,0-27.01.86-27.66-22.47,0,0-2.81-23.12,29.17-24.85,0,0,14.69,0,21.18,2.81,0,0,1.45-15.56-15.37-15.77,0,0-13.37-.86-26.12,5.4l-4.97-14.69Zm31.08,34.57c-16.67.22-15.1,11.24-15.1,11.24,1.95,10.16,15.1,8.86,15.1,8.86,17.9-.65,15.16-17.72,15.16-17.72-6.27-2.38-15.16-2.38-15.16-2.38Z"/>
    <path class="cls-1" d="m470.07,48.15h19.66v10.37s13.18-13.06,27.44-12.36c0,0,25.5-.39,26.36,31.81v43.65h-20.1v-38.68s1.3-19.02-16.64-18.8c0,0-15.99.55-17.07,17.24v40.24h-19.66V48.15Z"/>
    <path class="cls-1" d="m481.88,230.23h-19.66v-10.37s-13.18,13.06-27.44,12.36c0,0-25.5.39-26.36-31.81v-43.65h20.1v38.68s-1.3,19.01,16.64,18.8c0,0,15.99-.55,17.07-17.24v-40.24h19.66v73.47Z"/>
    <path class="cls-1" d="m885.95,230.23h-19.66v-10.37s-13.18,13.06-27.44,12.36c0,0-25.5.39-26.36-31.81v-43.65h20.1v38.68s-1.3,19.01,16.64,18.8c0,0,15.99-.55,17.07-17.24v-40.24h19.66v73.47Z"/>
    <path class="cls-1" d="m606.63,74.08l16.85-6.7s-8.21-20.4-31.55-21.22c0,0-38.89-2.59-41.92,38.7,0,0-.22,36.98,38.89,38.7,0,0,24.63,1.51,34.57-20.75l-16.42-7.56s-6.27,10.16-17.29,10.16c0,0-19.66.18-19.66-20.55,0,0-1.51-19.43,19.45-20.51,0,0,9.29-1.3,17.07,9.72Z"/>
    <path class="cls-1" d="m665.62,105.41c-10.86,0-19.66-9.29-19.66-20.74s8.81-20.74,19.66-20.74,19.66,9.29,19.66,20.74-8.81,20.74-19.66,20.74Zm39.54-20.74c0-21.27-17.71-38.51-39.54-38.51s-39.54,17.24-39.54,38.51,17.71,38.51,39.54,38.51,39.54-17.24,39.54-38.51Z"/>
    <path class="cls-1" d="m376.29,167.21l18.8-8.86s-13.18-25.93-44.94-25.06c0,0-27.87-1.73-43,22.69,0,0-17.07,25.5,0,53.59,0,0,12.1,21.61,42.14,22.69,0,0,22.47.43,36.73-12.96,0,0,16.85-12.75,14.48-43.22h-56.61v16.64h33.49s-2.6,19.88-27.23,19.88c0,0-16.63,0-25.06-13.61,0,0-11.02-15.56.43-33.71,0,0,6.26-12.1,24.63-13.18,0,0,16.86-1.3,26.15,15.12Z"/>
    <rect class="cls-1" x="898.92" y="156.77" width="19.88" height="73.03"/>
    <polygon class="cls-1" points="931.47 229.8 951.35 229.8 951.35 128.96 931.47 131.84 931.47 229.8"/>
    <path class="cls-1" d="m919.95,137.61c0-6.13-4.97-11.09-11.09-11.09s-11.09,4.97-11.09,11.09,4.97,11.09,11.09,11.09,11.09-4.97,11.09-11.09Z"/>
    <path class="cls-1" d="m562.34,156.19h22.8l19.55,48.62,19.45-48.62h21.82l-33.92,81.03s-6.48,22.36-29.6,21.71c0,0-13.35.43-21.96-5.19l6.95-16.31s5.73,3.56,13.18,3.89c0,0,8.75,1.19,14.26-12.1l-32.52-73.04Z"/>
    <path class="cls-1" d="m763.51,213.09c-10.5,0-19.01-9.02-19.01-20.14s8.52-20.14,19.01-20.14,19.02,9.02,19.02,20.14-8.52,20.14-19.02,20.14Zm19.02-47.83c-9.08-11.81-23.48-10.42-23.48-10.42-36.45-.05-34.57,39.66-34.57,39.66,1.73,38.89,33.71,37.17,33.71,37.17,14.12,1.44,24.34-10.37,24.34-10.37v36.01h19.3v-101.12h-19.3v9.08Z"/>
  </g>
</svg>