<?xml version="1.0" encoding="utf-8"?>
<!-- Generator: Adobe Illustrator 27.7.0, SVG Export Plug-In . SVG Version: 6.00 Build 0)  -->
<svg version="1.1" id="Capa_1" xmlns:xodm="http://www.corel.com/coreldraw/odm/2003"
	 xmlns="http://www.w3.org/2000/svg" xmlns:xlink="http://www.w3.org/1999/xlink" x="0px" y="0px" viewBox="0 0 146.25 146.25"
	 style="enable-background:new 0 0 146.25 146.25;" xml:space="preserve">
<style type="text/css">
	.st0{opacity:0.21;}
	.st1{fill-rule:evenodd;clip-rule:evenodd;fill:#E6E6E6;}
</style>
<g id="Capa_x0020_1" class="st0">
	<path class="st1" d="M103.89,24.59c1.32-0.37,1.78,0.24,2.62,1.56l24.03,37.46c4.86,7.56,3.02,11.07,1.65,17.89l-3.63,16.77
		c-0.68,3.25-1.48,7.18-5.16,10.57c-8.69,8.01-22.96,3.38-24.66-9.49c-0.29-2.24,0.03-4.07,0.41-5.77
		c0.85-3.76,1.59-7.41,2.45-11.18l1.18-5.6c0.18-2.01-2.04-4.68-3.29-6.63C93.65,61.08,87.83,52.01,82,42.92
		c-2.16-3.37-1.63-3.35,1.6-5.42c3.13-2.01,19.42-12.68,20.3-12.93L103.89,24.59z M106.81,33.13L87.74,45.38l-2.89-4.49l19.08-12.25
		l2.87,4.5L106.81,33.13z M128.89,79.58c-7.98-2.47-9.8-11.94-3.14-16.93c2.85,4.49,5.33,7.41,4.07,13.02
		c-0.18,0.83-0.63,3.35-0.94,3.91H128.89z M123.85,59.71c-8.37,5.91-7.46,18.67,2.78,22.83c0.54,0.23,1.08,0.33,1.56,0.52
		c-0.07,0.8-0.38,1.92-0.57,2.77l-1.85,8.49c-0.86,3.92-1.25,8.04-3.92,11.08c-6.72,7.64-18.9,3.4-19.68-6.8
		c-0.21-2.83,1.33-8.44,1.97-11.38c0.42-1.94,0.83-3.74,1.24-5.69c1.36-6.61,1.6-6.1-2.4-12.34L89.61,48.34l19.08-12.25l15.15,23.63
		L123.85,59.71z"/>
	<path class="st1" d="M142.89,18.82c1.42-0.25,1.65,0.35,2.55,1.76l0.81,1.26v9.21c-3.98,2.52-17.29,10.84-17.82,11.58
		c0.6,1.27,10.42,16.31,12.05,18.87c1.27,1.98,2.63,4.33,3.9,6.21c1.04,1.53,0.79,3.53,0.52,4.76l-2.87,13.14
		c-0.53,2.49-1.58,5.7-0.74,9.05c0.73,2.9,2.64,5.61,4.96,7.16v3.92c-6.08-2.8-10.32-9.66-8.26-17.98l3.61-16.78
		c0.12-1.98-2.13-4.73-3.35-6.63c-5.83-9.08-11.64-18.16-17.47-27.24c-2.2-3.43-1.54-3.27,1.8-5.42
		c3.02-1.94,19.53-12.74,20.32-12.87V18.82z M142.81,22.96l2.83,4.44l-18.98,12.15c-0.33-0.11,0.02,0.32-0.48-0.37l-2.52-3.97
		c0.53-0.69,14.69-9.54,17.91-11.62l0.88-0.55c0.28-0.11,0.19-0.06,0.36-0.06L142.81,22.96z"/>
	<path class="st1" d="M144.38,67.7c-1.28-1.88-2.63-4.23-3.9-6.21c-1.63-2.56-11.45-17.6-12.05-18.87
		c0.53-0.73,13.84-9.05,17.82-11.58v0.23l-17.71,11.34c4.19,6.89,9.56,14.92,14.08,21.97l1.47,2.28c0.07,0.11,0.17,0.27,0.21,0.39
		c0.18,0.44,0.09,0.24,0.09,0.46L144.38,67.7z"/>
	<path class="st1" d="M126.67,39.54c-0.33-0.11,0.02,0.32-0.48-0.37l-2.52-3.97c0.53-0.69,14.69-9.54,17.91-11.62l0.88-0.55
		c0.28-0.11,0.19-0.06,0.36-0.06L123.8,35.16l2.86,4.4L126.67,39.54z"/>
	<g id="_2439657775360">
		<path class="st1" d="M0,21.83l23.22,36.19c4.68,7.29,2.92,10.99,1.48,17.83c-0.92,4.4-3.93,19.4-5.17,22.3
			c-0.69,1.61-2.02,3.58-3.65,5.05c-4.9,4.4-10.97,4.78-15.86,2.52v-3.92c0.48,0.32,0.98,0.59,1.5,0.8
			c7.21,2.98,14.19-1.79,15.48-7.83c0.23-1.08,3.76-16.88,3.73-17.53c-2.12-0.68-4.1-1.41-6.18-3.51
			c-5.43-5.51-5.08-14.75,1.92-19.79L1.38,30.38l-1.36,0.87v-9.42L0,21.83z M21.48,73.78c-6.29-0.95-10.79-11.36-3.17-16.85
			c2.02,2.57,4.01,6.04,4.35,8.94C22.9,67.83,22.16,72.05,21.48,73.78z"/>
		<path class="st1" d="M0,31.04c0.36-0.23,0.65-0.42,0.85-0.54c0.82-0.54,0.16-0.14,0.52-0.11L0,31.26v-0.23V31.04z"/>
	</g>
	<path class="st1" d="M41.49,100.61c1.07-0.3,1.44,0.2,2.13,1.26L63.2,132.4c3.79,5.9,2.58,8.76,1.5,13.85h-7.43
		c-5.65-4.33-5.48-12.82,0.5-17.03l-12.34-19.25l-15.55,9.99l10.89,16.98c3.11,4.84,3.09,4.7,2.11,9.32h-2.95l0.65-3.09
		c0.15-1.63-1.67-3.81-2.68-5.4c-4.75-7.41-9.49-14.8-14.24-22.21c-1.76-2.74-1.33-2.73,1.31-4.42
		c2.55-1.63,15.84-10.34,16.55-10.54L41.49,100.61z M43.87,107.57l-15.54,9.99l-2.34-3.65l15.55-9.99l2.34,3.66L43.87,107.57z
		 M61.87,145.43c-6.5-2.02-7.98-9.73-2.56-13.8c2.32,3.65,4.34,6.03,3.33,10.61c-0.15,0.68-0.52,2.73-0.76,3.19H61.87z"/>
	<path class="st1" d="M73.28,95.9c1.16-0.2,1.34,0.28,2.07,1.43l19.58,30.52c3.82,5.95,2.38,8.96,1.21,14.54
		c-0.18,0.87-0.46,2.24-0.8,3.85h-2.96c0.32-1.5,0.53-2.57,0.52-2.72c-1.72-0.55-3.35-1.15-5.03-2.86
		c-4.43-4.5-4.15-12.02,1.56-16.13l-12.29-19.21c-0.29-0.01,0.25-0.35-0.43,0.09c-1.85,1.21-14.74,9.22-15.21,9.87
		c0.48,1.04,8.49,13.3,9.82,15.37c1.04,1.62,2.13,3.53,3.18,5.06c0.85,1.25,0.64,2.87,0.43,3.88l-1.44,6.64h-2.93l1.68-7.85
		c0.1-1.61-1.74-3.85-2.73-5.4c-4.75-7.41-9.49-14.8-14.24-22.21c-1.79-2.8-1.25-2.67,1.47-4.42C59.19,104.8,72.66,96,73.29,95.89
		L73.28,95.9z M73.22,99.27l2.31,3.62l-15.46,9.91c-0.27-0.09,0.02,0.26-0.39-0.3l-2.05-3.23c0.43-0.55,11.97-7.77,14.6-9.48
		l0.72-0.45c0.24-0.09,0.16-0.05,0.29-0.05L73.22,99.27z M93.53,140.7c-5.13-0.77-8.79-9.25-2.58-13.73
		c1.65,2.09,3.27,4.93,3.55,7.28c0.19,1.59-0.42,5.03-0.96,6.45H93.53z"/>
	<path class="st1" d="M74.49,135.74c-1.05-1.53-2.14-3.44-3.18-5.06c-1.34-2.09-9.33-14.34-9.82-15.37
		c0.47-0.65,13.36-8.67,15.21-9.87c0.67-0.44,0.12-0.1,0.43-0.09l-15.54,9.95c3.42,5.61,7.79,12.16,11.47,17.9l1.19,1.85
		c0.06,0.1,0.14,0.23,0.18,0.33c0.15,0.36,0.07,0.19,0.08,0.37H74.49z"/>
	<path class="st1" d="M60.06,112.8c-0.27-0.09,0.02,0.26-0.39-0.3l-2.05-3.23c0.43-0.55,11.97-7.77,14.6-9.48l0.72-0.45
		c0.24-0.09,0.16-0.05,0.29-0.05l-15.5,9.93L60.06,112.8z"/>
	<g id="_2439657781600">
		<path class="st1" d="M64.7,0c-0.06,0.24-0.1,0.48-0.16,0.73l-2.95,13.67c-0.55,2.65-1.21,5.85-4.2,8.61
			c-7.08,6.53-18.71,2.76-20.1-7.74c-0.24-1.83,0.02-3.31,0.34-4.7c0.69-3.07,1.3-6.03,2-9.11l0.32-1.48h2.95l-0.16,0.73
			c-0.33,1.59-0.67,3.05-1.01,4.64c-0.52,2.4-1.78,6.98-1.6,9.28c0.63,8.31,10.56,11.77,16.04,5.53c2.18-2.48,2.5-5.83,3.2-9.03
			l1.5-6.92c0.16-0.7,0.41-1.61,0.46-2.27c-0.38-0.16-0.82-0.24-1.26-0.42c-1.05-0.42-1.97-0.96-2.77-1.57h7.43L64.7,0z"/>
		<path class="st1" d="M95.34,0c-1.06,5.07-2.65,12.52-3.42,14.32c-0.56,1.32-1.65,2.92-2.98,4.11
			c-8.96,8.03-22.69-0.35-19.66-12.59L70.54,0h2.93l-0.89,4.08c-0.43,2.03-1.28,4.64-0.61,7.38c0.71,2.85,2.84,5.49,5.25,6.49
			c5.87,2.42,11.56-1.47,12.61-6.38c0.14-0.64,1.69-7.6,2.52-11.56h2.96L95.34,0z"/>
	</g>
	<circle class="st1" cx="45" cy="48.75" r="4.52"/>
	<circle class="st1" cx="55.49" cy="81.73" r="8.26"/>
	<circle class="st1" cx="120.03" cy="13.7" r="5.74"/>
	<circle class="st1" cx="125.51" cy="129.26" r="5.77"/>
	<circle class="st1" cx="23.26" cy="14.24" r="4.52"/>
</g>
</svg>
