<?xml version="1.0" encoding="UTF-8"?>
<!DOCTYPE svg PUBLIC "-//W3C//DTD SVG 1.1//EN" "http://www.w3.org/Graphics/SVG/1.1/DTD/svg11.dtd">
<!-- Creator: CorelDRAW -->
<svg xmlns="http://www.w3.org/2000/svg" xml:space="preserve" width="156.674mm" height="83.6201mm" version="1.1" style="shape-rendering:geometricPrecision; text-rendering:geometricPrecision; image-rendering:optimizeQuality; fill-rule:evenodd; clip-rule:evenodd"
viewBox="0 0 11628.43 6206.32"
 xmlns:xlink="http://www.w3.org/1999/xlink"
 xmlns:xodm="http://www.corel.com/coreldraw/odm/2003">
 <defs>
  <style type="text/css">
   <![CDATA[
    .str0 {stroke:black;stroke-width:19.63;stroke-miterlimit:22.9256}
    .fil16 {fill:black}
    .fil13 {fill:#010414}
    .fil2 {fill:#030303}
    .fil8 {fill:#03030B}
    .fil5 {fill:#050100}
    .fil11 {fill:#050505}
    .fil14 {fill:#080807}
    .fil12 {fill:#0B0402}
    .fil3 {fill:#238BE3}
    .fil0 {fill:#44A4F5}
    .fil15 {fill:#58A3D9}
    .fil10 {fill:#F3CB3C}
    .fil9 {fill:#F9C83B}
    .fil4 {fill:#FAB402}
    .fil6 {fill:#FAFFFE}
    .fil7 {fill:#FCFCFC}
    .fil1 {fill:#FDCA2A}
    .fil17 {fill:black;fill-rule:nonzero}
   ]]>
  </style>
 </defs>
 <g id="Capa_x0020_1">
  <metadata id="CorelCorpID_0Corel-Layer"/>
  <path class="fil0" d="M5194.48 1441.06c719.88,-233.03 1047.59,856.39 345.62,1079.17 -714.62,226.8 -1077.82,-842.16 -345.62,-1079.17zm1841.34 -22.93c318.81,-51.7 588.85,185.25 635.52,461.54 57.25,338.86 -180.01,611.39 -464.37,659.9 -739.04,126.09 -954.56,-994.4 -171.15,-1121.44zm-2732.32 2803.13c144.15,-0.65 214.73,-72.71 376.02,44.02 264.87,191.68 405.85,453.56 601.34,335.85 97.86,-58.92 159.74,-215.07 278.76,-77.35 5.17,-73.22 18.35,-69.35 75.73,-75.92 -117.53,-184.66 249.76,-370.76 512.89,-137.96 511.85,452.83 412.52,402.77 843.74,35.68 476.17,-405.38 687.5,188.87 878.03,249.89l4.34 -1563.62c-0.03,-1050.37 76.4,-1711.37 -730.54,-2409.85 -184.34,-159.57 -804.28,-485.94 -1134.42,-430.24 -105.21,23.65 -229.64,-8.18 -341.18,19.47 -68.31,16.93 -169.72,70.85 -244.62,109.11 -367.57,187.76 -723.13,515.7 -912.95,894.51 -425.23,848.6 -182.69,1946.04 -244.62,3004.04l37.44 2.38z"/>
  <path class="fil1" d="M8338.59 3393.79c-36.5,42.49 -122.53,43.4 -186.21,30.64 -80.55,-16.14 -67.49,-59.18 -66.14,-135.41 6.64,-372.97 27.42,-1316.19 -56.76,-1608.19 -21.75,-75.43 -81.64,-261.78 -85.76,-318.87l6.8 -809.48c66.58,-24.98 327.02,-25.16 370.73,12.33 28.23,32.88 12.7,-39.87 23.09,70.61 1.97,20.92 -1.01,73.31 -1.39,98.25l0.07 1983.97c0,43.95 18.35,657.9 -4.43,676.16zm560.85 149.85l102.05 -1.48c40.15,-99.74 96.18,-77.67 211.8,-77.37 110.82,0.28 169.19,-16.97 186.55,96.66l103.72 5.44c22.92,-141.09 118.54,-101.75 259.08,-100.78 379.08,2.6 382.03,-136.03 337.67,943.78l1124.48 4.39c-23.01,-1099.47 -42.4,-919.47 222.38,-953.24l-3.09 -1092.35c-298.06,-48.53 -210.95,138.73 -221.44,-930.1l-1122.15 7.26c8.18,146.96 32.98,807.62 -23.56,896.91 -70.16,36.9 -974.2,38.85 -1040.79,2.15 -57.34,-73.78 -32.25,-242.51 -32.51,-353.88 -0.33,-135.63 -38.13,-268.33 86.94,-294.34 3.91,-90.3 -9.48,-137.32 24.9,-194.01 -126.05,-4.22 -113.61,-57.78 -112.8,-178.14l0.39 -831.48 -1100.54 9.51c5.8,258.38 1.89,523.33 0.67,782.25 -0.96,206.58 99.86,410.13 123.31,645.67 45.33,455.12 12.74,1048.13 14.7,1526.42 122.24,19.54 333.27,9.49 464.73,9.39 261.37,-0.19 347.46,-39.34 393.52,77.35z"/>
  <path class="fil1" d="M322.7 1456.51c67.51,192.01 3.58,438.25 -123.39,319.27 -10.83,-10.15 -129.35,-397.15 123.39,-319.27zm-9.8 -74.22c128.56,-139.36 73,-173.5 73.37,-392.75 0.22,-123.88 12.57,-321.48 3.37,-432.92 69.24,-27.08 297.12,-23.1 379.1,-4.18 45.46,74.75 14.67,516.06 15.28,672.74 2.04,522.3 27.46,1819.23 -4.98,2186.22l-378.33 6.3c-27.97,-190.77 -15.04,-999.21 -12.75,-1289.89 3.22,-409.65 32.51,-106.79 -65.06,-293.86 92.06,-161.93 114.34,-282.82 -10,-451.66zm-138.61 2185.58c-1.78,-175.39 -35.17,-1620.49 37.85,-1666.91 157.87,-100.35 131.59,175.46 131.21,266.82l-0.13 1289.3c210.81,31.82 1285.76,9.19 1643.06,9.19 675.78,0.01 569.8,-175.57 555.21,935.77l953.78 6.21c28.94,-482.86 3.19,-1042.09 3.72,-1533.51 0.28,-255.37 -0.11,-510.8 0.55,-766.16 0.46,-175.28 112.44,-572.5 66.15,-668.74 -105.67,-3.58 -106.97,10.58 -146.29,-76.79 -38.08,-12.68 -62.02,-13.26 -114.07,-13.43 -81.49,-0.27 -6.55,47.19 -82.73,-20.89l-12.65 93.51c-169.38,49.64 -476.55,-11.7 -667.92,24.7 1.64,149.44 26.13,813.77 -25.52,896.78 -82.47,41.82 -976.16,36 -1053.99,-5.55 -42.72,-94.76 -21.55,-1599.74 -18.37,-1845.25l-1098.77 13.49c-5.97,158.77 -2.25,323.72 -2.03,483.14 0.13,100.52 40.9,461.09 -132.31,347.53 -71.96,-47.17 -40.26,-822.39 -34.18,-955.27 -58.66,40.54 -48.26,11.24 -167.15,25.66l-9.68 3137.83c93.9,5.42 120.33,-11.04 174.28,22.57z"/>
  <path class="fil2" d="M4722.08 299.91c-124.38,163.34 -1059.88,552 -1060.25,2005.36 -0.04,169.33 -50.63,333.09 144.1,288.44 49.62,-101.82 17.09,-397.24 28.19,-542.64 57.53,-753.85 528.79,-1407.35 1203.6,-1701.68 178.52,-77.86 832.32,-256.03 971.7,-157.64 330.14,-55.7 950.07,270.67 1134.42,430.24 806.94,698.48 730.51,1359.48 730.54,2409.85l-4.34 1563.62c-190.52,-61.02 -401.86,-655.27 -878.03,-249.89 -431.21,367.09 -331.88,417.16 -843.74,-35.68 -263.13,-232.8 -630.42,-46.7 -512.89,137.96 213.37,18.77 155.8,-204.29 420.84,12.48 112.56,92.06 208.28,191.6 329.18,280.06 306.2,224.05 551.83,-144.28 782.68,-316.44 170.74,-127.35 318.56,57.94 396.6,138.65 56.47,58.4 98.51,81.43 156.06,138.23 59.73,58.93 113.73,115.58 226.03,72.88 142.85,-54.31 95.05,-355.12 95.05,-524.35 0,-200.4 -1.94,-401.72 -0.31,-601.94 134.96,-19.76 521.21,-3.45 701.55,-5.44 103.73,-1.14 141.37,-2.01 156.38,-98.34 -46.06,-116.68 -132.16,-77.54 -393.52,-77.35 -131.46,0.1 -342.49,10.15 -464.73,-9.39 -1.97,-478.29 30.62,-1071.3 -14.7,-1526.42 -23.45,-235.54 -124.27,-439.1 -123.31,-645.67 1.22,-258.92 5.14,-523.87 -0.67,-782.25l1100.54 -9.51 -0.39 831.48c-0.81,120.36 -13.25,173.92 112.8,178.14 87.08,-31.9 59.47,-121.13 58.77,-238.14 -1.26,-207.43 22.55,-813.67 -18.5,-924.35 -108.73,-37.1 -879.5,-18.37 -1101.48,-18.56 -105.27,-0.09 -268.07,-35.99 -314.21,60.11l-11.67 656.74c-53.33,-83.8 -117.57,-160.74 -171.47,-243.89 -359.56,-361.68 -591.39,-603.87 -1212.99,-743.68 -424.69,-95.52 -887.06,-53.71 -1286.34,101.09 -123.09,47.72 -237.72,114 -335.49,147.91z"/>
  <path class="fil3" d="M3665.68 2972.92c-62.98,-213.72 121.85,-325.57 160.94,-173.44 66.46,258.64 -128.25,284.38 -160.94,173.44zm1056.4 -2673.01c-227.26,67.59 -450.17,261.32 -592.7,397.55 -92.03,87.97 -150.02,154.1 -229.49,261.2 -48.55,65.44 -157.83,269.98 -200.22,303.24 -10.55,35.55 -29.78,88.28 -45.68,120.68 -28.79,58.62 -13.81,43.3 -88.31,57.25 46.28,96.24 -65.69,493.46 -66.15,668.74 -0.66,255.36 -0.27,510.79 -0.55,766.16 -0.53,491.43 25.22,1050.66 -3.72,1533.51l3.36 174.56 8.72 90.09c148.03,73.51 49.34,17.81 164.06,13.68 -25.98,-131.67 -9.77,-921.36 -9.78,-1163.81 0,-99.57 -35.39,-325.96 45.24,-365.38 151.34,-73.98 124.23,154.26 123.94,247.51 -1.02,327.82 -14.66,926.82 3.9,1200.09 79.14,-34.28 261.95,-206.13 350.4,-276.89l118.4 -106.85 -37.44 -2.38c61.92,-1058.01 -180.62,-2155.44 244.62,-3004.04 189.82,-378.81 545.38,-706.74 912.95,-894.51 74.9,-38.26 176.31,-92.18 244.62,-109.11 111.54,-27.65 235.97,4.19 341.18,-19.47 -139.38,-98.39 -793.18,79.77 -971.7,157.64 -674.81,294.33 -1146.08,947.83 -1203.6,1701.68 -11.1,145.41 21.43,440.83 -28.19,542.64 -194.73,44.65 -144.14,-119.12 -144.1,-288.44 0.38,-1453.36 935.88,-1842.01 1060.25,-2005.36z"/>
  <path class="fil2" d="M9935.1 1335.52l-0.49 855.61 -170.17 1.41 -590.7 1.57c0.5,-94.21 -0.02,-188.13 0.91,-281.99 1.28,-129.78 24.95,-186.2 -84.09,-215.42 -125.08,26.01 -87.27,158.71 -86.94,294.34 0.26,111.37 -24.83,280.09 32.51,353.88 66.58,36.69 970.63,34.75 1040.79,-2.15 56.54,-89.29 31.74,-749.95 23.56,-896.91l1122.15 -7.26c10.49,1068.83 -76.62,881.57 221.44,930.1l3.09 1092.35c-264.78,33.78 -245.39,-146.22 -222.38,953.24l-1124.48 -4.39c44.36,-1079.81 41.42,-941.18 -337.67,-943.78 -140.54,-0.96 -236.16,-40.3 -259.08,100.78 35.57,103.18 137.69,74.08 264.25,73.47l166.97 1.19 -1.76 876.22c37.53,98.31 174.4,65.89 300.99,65.69 224.81,-0.37 1033.13,20.29 1137.66,-21.29 46.95,-117.74 22.05,-739.66 20.72,-922.49 31.08,0.56 89.57,4.24 118.2,0.64 34.32,-4.31 13.21,2.6 47.91,-11.79 110.17,-45.67 57.2,-519.73 57.2,-714.51 0,-717.65 74.94,-726.43 -222.84,-718.6 0,-1043.62 99.95,-930.86 -353.71,-930.79l-785.51 -0.01c-136.86,-0.1 -277.08,-35.84 -318.54,70.9z"/>
  <path class="fil4" d="M312.89 1382.29c124.35,168.84 102.06,289.73 10,451.66 97.57,187.07 68.28,-115.79 65.06,293.86 -2.29,290.68 -15.22,1099.12 12.75,1289.89l378.33 -6.3c32.44,-366.99 7.02,-1663.92 4.98,-2186.22 -0.61,-156.69 30.18,-597.99 -15.28,-672.74 -81.98,-18.93 -309.86,-22.9 -379.1,4.18 9.2,111.44 -3.15,309.04 -3.37,432.92 -0.37,219.25 55.18,253.38 -73.37,392.75z"/>
  <path class="fil5" d="M176.83 381.81c-6.08,132.88 -37.79,908.1 34.18,955.27 173.21,113.56 132.44,-247.01 132.31,-347.53 -0.22,-159.42 -3.93,-324.37 2.03,-483.14l1098.77 -13.49c-3.18,245.51 -24.35,1750.5 18.37,1845.25 77.84,41.55 971.52,47.37 1053.99,5.55 51.65,-83.02 27.16,-747.34 25.52,-896.78 191.38,-36.41 498.55,24.94 667.92,-24.7l12.65 -93.51c-36.75,-108.04 -319.91,-64.03 -450.82,-64.03 -84.17,-0.01 -173.65,-3.31 -256.87,-1.51 -108.01,2.33 -126.66,7.95 -144.46,98.23l2.28 835.26 -166.86 -3.96 -592.01 1.5c-0.12,-264.45 28.11,-1735.25 -19.02,-1852.01 -111.78,-45.49 -564.05,-20.48 -727.9,-20.48l-551.49 -1.55c-101.76,1.25 -104.28,-4.74 -138.61,61.64z"/>
  <path class="fil2" d="M174.28 3567.87c34.35,111.64 221.74,72.88 437.36,72.88l1595.31 -0.21 167.18 0.88 0.12 871.78c26.94,95.64 104.72,71.65 220.52,70.57 98.21,-0.92 196.6,-0.33 294.83,-0.33 202.89,0 406.19,1.3 609.02,-0.62l-3.36 -174.56 -953.78 -6.21c14.59,-1111.34 120.58,-935.76 -555.21,-935.77 -357.3,0 -1432.25,22.63 -1643.06,-9.19l0.13 -1289.3c0.37,-91.37 26.66,-367.17 -131.21,-266.82 -73.03,46.42 -39.63,1491.52 -37.85,1666.91z"/>
  <path class="fil6" d="M5422.12 1828.33c255.9,-130.72 396.68,271.61 162.26,364.19 -235.36,92.95 -403.08,-241.17 -162.26,-364.19zm-227.63 -387.27c-732.19,237.02 -368.99,1305.97 345.62,1079.17 701.96,-222.78 374.26,-1312.2 -345.62,-1079.17z"/>
  <path class="fil7" d="M7060.52 2069.6c-74.82,-288.8 333.93,-352.61 386.59,-114.23 60.65,274.5 -329.61,334.2 -386.59,114.23zm-24.7 -651.48c-783.41,127.04 -567.88,1247.53 171.15,1121.44 284.35,-48.51 521.61,-321.04 464.37,-659.9 -46.67,-276.29 -316.71,-513.24 -635.52,-461.54z"/>
  <path class="fil4" d="M8338.59 3393.79c22.78,-18.26 4.43,-632.2 4.43,-676.16l-0.07 -1983.97c0.38,-24.94 3.35,-77.34 1.39,-98.25 -10.39,-110.48 5.14,-37.73 -23.09,-70.61 -43.71,-37.49 -304.16,-37.31 -370.73,-12.33l-6.8 809.48c4.12,57.1 64.01,243.44 85.76,318.87 84.19,292 63.4,1235.22 56.76,1608.19 -1.35,76.22 -14.41,119.27 66.14,135.41 63.68,12.76 149.71,11.85 186.21,-30.64z"/>
  <path class="fil8" d="M3671.39 4686.58c190.54,290.48 428.82,-108.64 704.87,-285.82 106.89,-68.6 192.68,-0.55 266.22,59.49 261.18,213.21 445.85,485.54 742.01,281.03 64.38,-44.45 170.05,-111.62 175.14,-217.51 -119.02,-137.72 -180.91,18.43 -278.76,77.35 -195.49,117.71 -336.47,-144.17 -601.34,-335.85 -161.29,-116.73 -231.87,-44.67 -376.02,-44.02l-118.4 106.85c-88.46,70.76 -271.26,242.61 -350.4,276.89 -18.56,-273.27 -4.92,-872.28 -3.9,-1200.09 0.29,-93.25 27.39,-321.49 -123.94,-247.51 -80.63,39.42 -45.24,265.81 -45.24,365.38 0.01,242.45 -16.19,1032.13 9.78,1163.81z"/>
  <polygon class="fil9" points="2374.25,4513.2 2374.13,3641.42 2206.95,3640.54 2198.59,4503.9 "/>
  <polygon class="fil10" points="9933.01,4517.76 9934.77,3641.55 9767.8,3640.36 9760.07,4501.58 "/>
  <path class="fil9" d="M2205.86 2192.71l166.86 3.96 -2.28 -835.26c-238.01,-62.69 -171.86,93.67 -172.61,315.44 -0.56,167.6 -7.62,350.2 8.02,515.85z"/>
  <path class="fil10" d="M9764.44 2192.54l170.17 -1.41 0.49 -855.61c-54.98,29.77 -84.28,14.98 -171.16,27.64l0.5 829.38z"/>
  <path class="fil2" d="M5422.12 1828.33c-240.82,123.02 -73.1,457.15 162.26,364.19 234.42,-92.58 93.64,-494.92 -162.26,-364.19z"/>
  <path class="fil2" d="M7060.52 2069.6c56.99,219.97 447.24,160.28 386.59,-114.23 -52.67,-238.39 -461.41,-174.57 -386.59,114.23z"/>
  <path class="fil10" d="M7556.89 794.59c53.91,83.15 118.14,160.09 171.47,243.89l11.67 -656.74c-69.84,57.25 -156.84,-22.46 -164.26,50.63 -2.7,26.6 -18.87,-0.58 -17.63,164.06 0.5,66.07 1.47,132.42 -1.25,198.17z"/>
  <path class="fil11" d="M9001.48 3542.16c17.92,113.32 78.62,100.02 191.42,100.26 106.45,0.22 174.08,20.37 206.93,-80.97 -17.36,-113.63 -75.73,-96.38 -186.55,-96.66 -115.61,-0.3 -171.64,-22.37 -211.8,77.37z"/>
  <path class="fil12" d="M322.7 1456.51c-252.74,-77.87 -134.22,309.12 -123.39,319.27 126.98,118.98 190.9,-127.27 123.39,-319.27z"/>
  <path class="fil13" d="M3665.68 2972.92c32.69,110.94 227.4,85.21 160.94,-173.44 -39.09,-152.13 -223.92,-40.28 -160.94,173.44z"/>
  <path class="fil14" d="M3419.38 1363.05c39.31,87.37 40.62,73.2 146.29,76.79 74.5,-13.95 59.52,1.37 88.31,-57.25 15.91,-32.4 35.13,-85.12 45.68,-120.68 -147.88,6.4 -255.13,-42.51 -280.29,101.14z"/>
  <path class="fil15" d="M8506.16 4347.55l156.84 142.53c66.98,-55.94 1.05,-27 62.48,-80.88 50.28,-44.11 33.96,17.41 72.56,-61.65 -43.14,-74.29 -20.86,-6.19 -79.26,-55.45 -66.53,-56.11 14.87,-44.46 -75.42,-82.79 -34.39,38.02 -30.47,57.49 -56.56,80.28 -56.67,49.48 -34.87,-13.5 -80.64,57.96z"/>
  <path class="fil15" d="M3666.98 459.33l145.57 149.37c58.72,-52.73 16.14,-38.79 65.92,-83.23 57.39,-51.23 33.84,18.09 71.29,-66.14 -3.82,-3.21 -10.28,-12.45 -12.23,-8.64 -14.98,29.22 -124.88,-124.94 -124.97,-125.05 -77.37,33.81 -18.76,38.88 -91.42,98.25l-54.15 35.43z"/>
  <rect class="fil16 str0" x="4132.03" y="5272.79" width="1845.92" height="196.37" rx="98.19" ry="98.19"/>
  <rect class="fil16 str0" x="6115.43" y="5272.79" width="589.13" height="196.37" rx="31.34" ry="98.19"/>
  <rect class="fil16 str0" x="6802.74" y="5272.79" width="1276.44" height="196.37" rx="67.89" ry="98.19"/>
  <path class="fil17" d="M5067.66 6070.62l0 -288.52c0,-15.22 -2.26,-25.41 -6.79,-30.56 -4.53,-5.16 -13.46,-7.8 -26.92,-7.8 -13.71,0 -22.89,2.64 -27.42,7.8 -4.53,5.16 -6.79,15.34 -6.79,30.56l0 288.52c0,15.47 2.26,25.78 6.79,30.81 4.53,5.03 13.71,7.55 27.42,7.55 13.46,0 22.39,-2.52 26.92,-7.55 4.53,-5.03 6.79,-15.34 6.79,-30.81zm130.55 -17.99c0,37.61 -2.14,64.4 -6.29,80.5 -4.15,16.1 -11.44,29.68 -21.75,40.75 -11.07,12.08 -24.91,20.5 -41.63,25.28 -16.6,4.78 -48.18,7.17 -94.71,7.17 -46.65,0 -78.35,-2.39 -94.96,-7.17 -16.72,-4.78 -30.68,-13.2 -41.76,-25.28 -10.31,-11.32 -17.61,-25.28 -22.01,-41.88 -4.4,-16.6 -6.66,-43.01 -6.66,-79.36l0 -252.93c0,-36.35 2.14,-62.76 6.41,-79.24 4.28,-16.48 11.82,-30.31 22.26,-41.63 11.32,-12.32 26.29,-20.88 44.78,-25.78 18.61,-4.91 49.3,-7.41 91.94,-7.41 42.51,0 72.95,2.51 91.19,7.41 18.36,4.91 33.21,13.46 44.52,25.78 10.44,11.32 17.98,25.15 22.26,41.63 4.28,16.48 6.42,42.89 6.42,79.24l0 252.93z"/>
  <path id="_1" class="fil17" d="M5463.72 6070.62l0 -288.52c0,-15.22 -2.26,-25.41 -6.79,-30.56 -4.53,-5.16 -13.46,-7.8 -26.92,-7.8 -13.71,0 -22.89,2.64 -27.42,7.8 -4.53,5.16 -6.79,15.34 -6.79,30.56l0 288.52c0,15.47 2.26,25.78 6.79,30.81 4.53,5.03 13.71,7.55 27.42,7.55 13.46,0 22.39,-2.52 26.92,-7.55 4.53,-5.03 6.79,-15.34 6.79,-30.81zm130.55 -17.99c0,37.61 -2.14,64.4 -6.29,80.5 -4.15,16.1 -11.44,29.68 -21.75,40.75 -11.07,12.08 -24.91,20.5 -41.63,25.28 -16.6,4.78 -48.18,7.17 -94.71,7.17 -46.65,0 -78.35,-2.39 -94.96,-7.17 -16.72,-4.78 -30.68,-13.2 -41.76,-25.28 -10.31,-11.32 -17.61,-25.28 -22.01,-41.88 -4.4,-16.6 -6.66,-43.01 -6.66,-79.36l0 -252.93c0,-36.35 2.14,-62.76 6.41,-79.24 4.28,-16.48 11.82,-30.31 22.26,-41.63 11.32,-12.32 26.29,-20.88 44.78,-25.78 18.61,-4.91 49.3,-7.41 91.94,-7.41 42.51,0 72.95,2.51 91.19,7.41 18.36,4.91 33.21,13.46 44.52,25.78 10.44,11.32 17.98,25.15 22.26,41.63 4.28,16.48 6.42,42.89 6.42,79.24l0 252.93z"/>
  <path id="_2" class="fil17" d="M5859.77 6070.62l0 -288.52c0,-15.22 -2.26,-25.41 -6.79,-30.56 -4.53,-5.16 -13.46,-7.8 -26.92,-7.8 -13.71,0 -22.89,2.64 -27.42,7.8 -4.53,5.16 -6.79,15.34 -6.79,30.56l0 288.52c0,15.47 2.26,25.78 6.79,30.81 4.53,5.03 13.71,7.55 27.42,7.55 13.46,0 22.39,-2.52 26.92,-7.55 4.53,-5.03 6.79,-15.34 6.79,-30.81zm130.55 -17.99c0,37.61 -2.14,64.4 -6.29,80.5 -4.15,16.1 -11.44,29.68 -21.75,40.75 -11.07,12.08 -24.91,20.5 -41.63,25.28 -16.6,4.78 -48.18,7.17 -94.71,7.17 -46.65,0 -78.35,-2.39 -94.96,-7.17 -16.72,-4.78 -30.68,-13.2 -41.76,-25.28 -10.31,-11.32 -17.61,-25.28 -22.01,-41.88 -4.4,-16.6 -6.66,-43.01 -6.66,-79.36l0 -252.93c0,-36.35 2.14,-62.76 6.41,-79.24 4.28,-16.48 11.82,-30.31 22.26,-41.63 11.32,-12.32 26.29,-20.88 44.78,-25.78 18.61,-4.91 49.3,-7.41 91.94,-7.41 42.51,0 72.95,2.51 91.19,7.41 18.36,4.91 33.21,13.46 44.52,25.78 10.44,11.32 17.98,25.15 22.26,41.63 4.28,16.48 6.42,42.89 6.42,79.24l0 252.93z"/>
  <path id="_3" class="fil17" d="M6255.83 6070.62l0 -288.52c0,-15.22 -2.26,-25.41 -6.79,-30.56 -4.53,-5.16 -13.46,-7.8 -26.92,-7.8 -13.71,0 -22.89,2.64 -27.42,7.8 -4.53,5.16 -6.79,15.34 -6.79,30.56l0 288.52c0,15.47 2.26,25.78 6.79,30.81 4.53,5.03 13.71,7.55 27.42,7.55 13.46,0 22.39,-2.52 26.92,-7.55 4.53,-5.03 6.79,-15.34 6.79,-30.81zm130.55 -17.99c0,37.61 -2.14,64.4 -6.29,80.5 -4.15,16.1 -11.44,29.68 -21.75,40.75 -11.07,12.08 -24.91,20.5 -41.63,25.28 -16.6,4.78 -48.18,7.17 -94.71,7.17 -46.65,0 -78.35,-2.39 -94.96,-7.17 -16.72,-4.78 -30.68,-13.2 -41.76,-25.28 -10.31,-11.32 -17.61,-25.28 -22.01,-41.88 -4.4,-16.6 -6.66,-43.01 -6.66,-79.36l0 -252.93c0,-36.35 2.14,-62.76 6.41,-79.24 4.28,-16.48 11.82,-30.31 22.26,-41.63 11.32,-12.32 26.29,-20.88 44.78,-25.78 18.61,-4.91 49.3,-7.41 91.94,-7.41 42.51,0 72.95,2.51 91.19,7.41 18.36,4.91 33.21,13.46 44.52,25.78 10.44,11.32 17.98,25.15 22.26,41.63 4.28,16.48 6.42,42.89 6.42,79.24l0 252.93z"/>
  <path id="_4" class="fil17" d="M6586.99 6044.08l0 155.45 -127.53 0 0 -547.11 128.29 0c78.35,0 130.29,10.06 155.83,30.06 25.41,19.99 38.11,56.72 38.11,110.3l0 110.8c0,52.58 -12.45,89.18 -37.23,109.68 -24.9,20.5 -70.31,30.82 -136.46,30.82l-21 0zm66.41 -139.73l0 -115.96c0,-15.22 -2.64,-25.53 -7.79,-31.07 -5.16,-5.53 -15.22,-8.3 -30.19,-8.3l-28.43 0 0 194.7 28.43 0c14.96,0 25.03,-2.77 30.19,-8.3 5.15,-5.54 7.79,-15.85 7.79,-31.07z"/>
  <path id="_5" class="fil17" d="M6948.83 6016.91l0 53.08c0,14.21 2.89,24.27 8.55,30.19 5.66,5.91 15.22,8.8 28.8,8.8 14.72,0 24.65,-2.77 29.81,-8.42 5.16,-5.66 7.8,-16.35 7.8,-32.08l0 -38.74c0,-11.7 -0.76,-20.5 -2.26,-26.16 -1.39,-5.66 -3.9,-10.69 -7.3,-15.09 -8.42,-10.06 -27.67,-18.49 -57.85,-25.03 -13.83,-3.02 -24.53,-5.54 -32.07,-7.8 -35.47,-10.06 -59.75,-24.15 -73.08,-42.26 -13.2,-18.11 -19.87,-46.54 -19.87,-85.4l0 -50.56c0,-49.05 9.56,-83.26 28.55,-102.76 18.99,-19.37 51.95,-29.05 98.86,-29.05l37.73 0c29.43,0 53.57,2.51 72.57,7.54 18.87,5.03 33.71,13.09 44.52,24.15 8.68,8.55 14.59,19.5 18.11,32.83 3.4,13.2 5.16,34.46 5.16,63.64l0 42.39 -113.07 0 0 -34.21c0,-17.23 -2.26,-28.68 -6.79,-34.33 -4.65,-5.66 -13.83,-8.43 -27.92,-8.43 -13.58,0 -22.76,2.64 -27.54,7.93 -4.78,5.28 -7.17,15.09 -7.17,29.68l0 35.34c0,26.79 22.89,45.91 68.67,57.48 12.96,3.53 23.27,6.29 30.94,8.55 35.09,9.81 59.24,23.65 72.32,41.26 13.2,17.73 19.74,45.78 19.74,84.14l0 73.71c0,45.78 -10.81,78.61 -32.58,98.85 -21.75,20.12 -57.22,30.19 -106.28,30.19l-33.96 0c-54.08,0 -91.19,-9.18 -111.43,-27.67 -20.25,-18.36 -30.44,-52.44 -30.44,-102.13l0 -59.61 117.47 0z"/>
  <path id="_6" class="fil17" d="M7227.55 6028.23l0 -375.81 113.95 0 0 375.81 -113.95 0zm0 171.3l0 -120.74 113.95 0 0 120.74 -113.95 0z"/>
  <path id="_7" class="fil17" d="M7444.26 6028.23l0 -375.81 113.95 0 0 375.81 -113.95 0zm0 171.3l0 -120.74 113.95 0 0 120.74 -113.95 0z"/>
 </g>
</svg>
