<?xml version="1.0" encoding="UTF-8"?>
<!DOCTYPE svg PUBLIC "-//W3C//DTD SVG 1.1//EN" "http://www.w3.org/Graphics/SVG/1.1/DTD/svg11.dtd">
<!-- Creator: CorelDRAW -->
<svg xmlns="http://www.w3.org/2000/svg" xml:space="preserve" width="88.9192mm" height="21.6396mm" version="1.1" style="shape-rendering:geometricPrecision; text-rendering:geometricPrecision; image-rendering:optimizeQuality; fill-rule:evenodd; clip-rule:evenodd"
viewBox="0 0 2707.42 658.88"
 xmlns:xlink="http://www.w3.org/1999/xlink"
 xmlns:xodm="http://www.corel.com/coreldraw/odm/2003">
 <defs>
  <style type="text/css">
   <![CDATA[
    .fil0 {fill:#9900CC}
    .fil1 {fill:white}
    .fil2 {fill:white;fill-rule:nonzero}
   ]]>
  </style>
 </defs>
 <g id="Capa_x0020_1">
  <metadata id="CorelCorpID_0Corel-Layer"/>
  <rect class="fil0" x="-0" y="0" width="2707.42" height="658.88" rx="33.06" ry="33.06"/>
  <g id="_2031236169200">
   <path class="fil1" d="M442.96 399.19c28.99,0 52.49,23.5 52.49,52.49 0,28.99 -23.5,52.49 -52.49,52.49 -28.99,0 -52.49,-23.5 -52.49,-52.49 0,-28.99 23.5,-52.49 52.49,-52.49zm0 27.32c13.9,0 25.17,11.27 25.17,25.17 0,13.9 -11.27,25.17 -25.17,25.17 -13.9,0 -25.17,-11.27 -25.17,-25.17 0,-13.9 11.27,-25.17 25.17,-25.17z"/>
   <path class="fil1" d="M719.38 399.19c28.99,0 52.49,23.5 52.49,52.49 0,28.99 -23.5,52.49 -52.49,52.49 -28.99,0 -52.49,-23.5 -52.49,-52.49 0,-28.99 23.5,-52.49 52.49,-52.49zm0 27.32c13.9,0 25.17,11.27 25.17,25.17 0,13.9 -11.27,25.17 -25.17,25.17 -13.9,0 -25.17,-11.27 -25.17,-25.17 0,-13.9 11.27,-25.17 25.17,-25.17z"/>
   <path class="fil1" d="M348.6 450.25l25.03 0c5.57,-39.9 34.58,-70.32 69.54,-70.32 34.96,0 63.97,30.42 69.54,70.32l136.21 0c6.12,-39.09 34.82,-68.68 69.3,-68.68 34.48,0 63.17,29.58 69.3,68.68l1.31 0 13.52 0c8.34,0 24.61,-9.97 26.99,-22.59 15.67,-83.32 -19.08,-163.85 -51,-186.63 -15.49,-11.05 -39.3,-17.04 -98.88,-13.2 7.79,-58.95 4.01,-69.9 -18.62,-73.13l-264.53 0c-17.54,0 -33.17,14.35 -34.74,31.89l-22.64 253.02c-0.52,5.85 3.83,10.63 9.68,10.63zm343.62 -123.42l94.88 0 0 0c2.69,-33.61 -22.61,-61.11 -56.22,-61.11l-33.77 0 -4.89 61.11z"/>
   <rect class="fil1" x="147.22" y="351.48" width="137.15" height="20.98" rx="11.25" ry="10.49"/>
   <rect class="fil1" x="205.75" y="303.99" width="113.78" height="20.98" rx="9.33" ry="10.49"/>
   <rect class="fil1" x="124.65" y="257.21" width="173.72" height="20.98" rx="14.25" ry="10.49"/>
   <rect class="fil1" x="178.72" y="209.72" width="151.86" height="20.98" rx="12.46" ry="10.49"/>
  </g>
  <path class="fil2" d="M992.89 452.23c-22.55,0 -40.65,-6.83 -54.32,-20.49 -13.66,-13.66 -20.49,-31.77 -20.49,-54.32l0 -135.69c0,-22.81 6.83,-40.92 20.49,-54.32 13.66,-13.4 31.77,-20.1 54.32,-20.1 22.81,0 41.12,6.7 54.92,20.1 13.79,13.4 20.69,31.5 20.69,54.32l0 4.77c0,1.33 -0.46,2.52 -1.39,3.58 -0.93,1.06 -2.06,1.59 -3.38,1.59l-37.01 1.59c-3.18,0 -4.77,-1.59 -4.77,-4.77l0 -9.95c0,-9.29 -2.65,-16.85 -7.96,-22.68 -5.31,-5.84 -12.33,-8.75 -21.09,-8.75 -8.49,0 -15.39,2.92 -20.69,8.75 -5.31,5.84 -7.96,13.4 -7.96,22.68l0 142.45c0,9.29 2.65,16.85 7.96,22.68 5.3,5.84 12.2,8.76 20.69,8.76 8.76,0 15.78,-2.92 21.09,-8.76 5.31,-5.83 7.96,-13.39 7.96,-22.68l0 -9.95c0,-1.33 0.46,-2.45 1.39,-3.38 0.93,-0.93 2.06,-1.39 3.38,-1.39l37.01 1.59c1.33,0 2.45,0.47 3.38,1.39 0.93,0.93 1.39,2.06 1.39,3.38l0 4.77c0,22.55 -6.9,40.65 -20.69,54.32 -13.8,13.66 -32.1,20.49 -54.92,20.49z"/>
  <path id="_1" class="fil2" d="M1166.38 452.23c-22.02,0 -39.33,-5.84 -51.93,-17.51 -12.6,-11.67 -18.9,-27.46 -18.9,-47.35l0 -79.98c0,-19.63 6.37,-35.35 19.1,-47.15 12.73,-11.8 29.98,-17.71 51.73,-17.71 22.02,0 39.39,5.9 52.13,17.71 12.73,11.8 19.1,27.52 19.1,47.15l0 79.98c0,19.9 -6.3,35.68 -18.9,47.35 -12.6,11.67 -30.04,17.51 -52.33,17.51zm0 -40.19c7.43,0 13.46,-2.59 18.1,-7.76 4.64,-5.17 6.96,-12 6.96,-20.49l0 -73.22c0,-8.22 -2.32,-14.99 -6.96,-20.29 -4.64,-5.3 -10.68,-7.96 -18.1,-7.96 -7.43,0 -13.4,2.59 -17.91,7.76 -4.51,5.17 -6.77,12 -6.77,20.49l0 73.22c0,8.49 2.26,15.32 6.77,20.49 4.51,5.17 10.48,7.76 17.91,7.76z"/>
  <path id="_2" class="fil2" d="M1338.29 452.23c-22.02,0 -39.33,-5.84 -51.93,-17.51 -12.6,-11.67 -18.9,-27.46 -18.9,-47.35l0 -79.98c0,-19.63 6.37,-35.35 19.1,-47.15 12.73,-11.8 29.98,-17.71 51.73,-17.71 22.02,0 39.39,5.9 52.13,17.71 12.73,11.8 19.1,27.52 19.1,47.15l0 79.98c0,19.9 -6.3,35.68 -18.9,47.35 -12.6,11.67 -30.04,17.51 -52.33,17.51zm0 -40.19c7.43,0 13.46,-2.59 18.1,-7.76 4.64,-5.17 6.96,-12 6.96,-20.49l0 -73.22c0,-8.22 -2.32,-14.99 -6.96,-20.29 -4.64,-5.3 -10.68,-7.96 -18.1,-7.96 -7.43,0 -13.4,2.59 -17.91,7.76 -4.51,5.17 -6.77,12 -6.77,20.49l0 73.22c0,8.49 2.26,15.32 6.77,20.49 4.51,5.17 10.48,7.76 17.91,7.76z"/>
  <path id="_3" class="fil2" d="M1528.5 242.53c17.77,0 31.57,5.77 41.38,17.31 9.82,11.54 14.72,27.26 14.72,47.15l0 80.38c0,20.43 -4.91,36.34 -14.72,47.75 -9.81,11.41 -23.61,17.11 -41.38,17.11 -6.1,0 -12.34,-1.13 -18.7,-3.38 -6.37,-2.26 -12.07,-5.9 -17.11,-10.94 -0.53,-0.53 -1.06,-0.66 -1.59,-0.4 -0.53,0.26 -0.8,0.79 -0.8,1.59l0 80.38c0,1.33 -0.46,2.45 -1.39,3.38 -0.93,0.93 -2.06,1.39 -3.38,1.39l-36.61 0c-1.33,0 -2.45,-0.46 -3.38,-1.39 -0.93,-0.93 -1.39,-2.06 -1.39,-3.38l0 -269c0,-1.32 0.47,-2.45 1.39,-3.38 0.93,-0.93 2.06,-1.39 3.38,-1.39l36.61 0c1.33,0 2.45,0.46 3.38,1.39 0.93,0.93 1.39,2.06 1.39,3.38l0 4.77c0,0.8 0.33,1.26 1,1.39 0.66,0.13 1.39,-0.33 2.19,-1.39 9.28,-8.49 20.96,-12.73 35.02,-12.73zm10.34 68.05c0,-8.49 -2.25,-15.39 -6.76,-20.69 -4.51,-5.3 -10.48,-7.96 -17.91,-7.96 -7.16,0 -12.93,2.65 -17.31,7.96 -4.38,5.31 -6.57,12.2 -6.57,20.69l0 73.62c0,8.49 2.19,15.32 6.57,20.49 4.38,5.17 10.15,7.76 17.31,7.76 7.43,0 13.4,-2.59 17.91,-7.76 4.51,-5.17 6.76,-12 6.76,-20.49l0 -73.62z"/>
  <path id="_4" class="fil2" d="M1755.71 359.52c0,1.33 -0.46,2.45 -1.39,3.38 -0.93,0.93 -2.06,1.39 -3.38,1.39l-87.94 0c-1.33,0 -1.99,0.66 -1.99,1.99l0 17.91c0,8.22 2.26,14.99 6.77,20.29 4.51,5.3 10.35,7.96 17.51,7.96 6.1,0 11.34,-1.92 15.72,-5.77 4.38,-3.85 7.23,-8.82 8.56,-14.92 0.8,-2.65 2.52,-3.98 5.17,-3.98l35.41 1.59c1.33,0 2.45,0.46 3.38,1.39 0.93,0.93 1.26,2.19 1,3.78 -1.86,18.57 -8.62,32.83 -20.29,42.78 -11.67,9.95 -27.99,14.92 -48.95,14.92 -21.75,0 -38.93,-5.77 -51.53,-17.31 -12.6,-11.54 -18.9,-27.26 -18.9,-47.15l0 -80.78c0,-19.36 6.3,-34.95 18.9,-46.76 12.6,-11.8 29.78,-17.71 51.53,-17.71 21.75,0 38.93,5.9 51.53,17.71 12.6,11.8 18.9,27.39 18.9,46.76l0 52.53zm-70.43 -77.2c-7.16,0 -13,2.66 -17.51,7.96 -4.51,5.31 -6.77,12.07 -6.77,20.29l0 17.91c0,1.33 0.66,1.99 1.99,1.99l44.96 0c1.33,0 1.99,-0.66 1.99,-1.99l0 -17.91c0,-8.49 -2.26,-15.32 -6.77,-20.49 -4.51,-5.17 -10.48,-7.76 -17.91,-7.76z"/>
  <path id="_5" class="fil2" d="M1870.71 243.32c7.16,0 12.73,1.32 16.71,3.98 2.12,1.32 2.92,3.32 2.39,5.97l-6.37 37.01c-0.26,3.18 -2.12,4.11 -5.57,2.79 -3.71,-1.06 -7.16,-1.59 -10.35,-1.59 -3.18,0 -6.1,0.4 -8.75,1.19 -7.43,1.06 -13.46,5.24 -18.1,12.54 -4.64,7.3 -6.96,15.98 -6.96,26.06l0 112.61c0,1.33 -0.47,2.45 -1.39,3.38 -0.93,0.93 -2.06,1.39 -3.38,1.39l-36.61 0c-1.33,0 -2.45,-0.46 -3.38,-1.39 -0.93,-0.93 -1.39,-2.06 -1.39,-3.38l0 -193.39c0,-1.32 0.46,-2.45 1.39,-3.38 0.93,-0.93 2.06,-1.39 3.38,-1.39l36.61 0c1.33,0 2.45,0.46 3.38,1.39 0.93,0.93 1.39,2.06 1.39,3.38l0 18.31c0,1.06 0.26,1.66 0.79,1.79 0.53,0.13 0.93,-0.33 1.19,-1.39 7.16,-17.25 18.84,-25.87 35.02,-25.87z"/>
  <path id="_6" class="fil2" d="M1979.74 242.53c20.96,0 37.94,6.1 50.93,18.31 13,12.2 19.5,28.25 19.5,48.15l0 135.3c0,1.32 -0.47,2.45 -1.39,3.38 -0.93,0.93 -2.06,1.39 -3.38,1.39l-36.61 0c-1.33,0 -2.45,-0.46 -3.38,-1.39 -0.93,-0.93 -1.39,-2.06 -1.39,-3.38l0 -7.56c0,-0.8 -0.27,-1.33 -0.8,-1.59 -0.53,-0.26 -1.06,0 -1.59,0.79 -9.28,10.88 -22.81,16.32 -40.59,16.32 -15.12,0 -28.45,-4.31 -39.99,-12.93 -11.54,-8.62 -17.31,-24.34 -17.31,-47.15 0,-23.87 6.96,-40.85 20.89,-50.93 13.93,-10.08 32.83,-15.12 56.7,-15.12l20.69 0c1.33,0 1.99,-0.66 1.99,-1.99l0 -10.35c0,-9.55 -2.39,-17.18 -7.16,-22.88 -4.77,-5.7 -10.74,-8.56 -17.91,-8.56 -5.57,0 -10.21,1.79 -13.93,5.37 -3.71,3.58 -5.97,8.42 -6.77,14.52 -0.26,3.18 -1.99,4.77 -5.17,4.77l-38.6 0c-3.18,0 -4.64,-1.59 -4.38,-4.77 1.33,-18.04 8.42,-32.5 21.29,-43.37 12.86,-10.88 28.98,-16.32 48.35,-16.32zm-5.97 171.5c7.96,0 14.99,-2.52 21.09,-7.56 6.1,-5.04 9.15,-12.07 9.15,-21.09l0 -22.68c0,-1.32 -0.66,-1.99 -1.99,-1.99l-20.69 0c-9.02,0 -16.31,2.45 -21.89,7.36 -5.57,4.91 -8.35,12 -8.35,21.29 0,8.22 2.12,14.39 6.37,18.5 4.24,4.11 9.68,6.17 16.31,6.17z"/>
  <path id="_7" class="fil2" d="M2168.36 273.56c0,1.33 -0.46,2.45 -1.39,3.38 -0.93,0.93 -2.06,1.39 -3.38,1.39l-24.67 0c-1.32,0 -1.99,0.66 -1.99,1.99l0 104.25c0,9.29 1.72,15.72 5.17,19.3 3.45,3.58 8.62,5.24 15.52,4.97l2.78 0c1.33,0 2.45,0.47 3.38,1.39 0.93,0.93 1.39,2.06 1.39,3.38l0 30.64c0,1.32 -0.47,2.45 -1.39,3.38 -0.93,0.93 -2.06,1.39 -3.38,1.39l-13.53 0c-18.04,0 -31.64,-3.32 -40.79,-9.95 -9.15,-6.63 -13.73,-19.1 -13.73,-37.41l0 -121.37c0,-1.33 -0.66,-1.99 -1.99,-1.99l-13.93 0c-1.33,0 -2.45,-0.46 -3.38,-1.39 -0.93,-0.93 -1.39,-2.06 -1.39,-3.38l0 -23.08c0,-1.32 0.46,-2.45 1.39,-3.38 0.93,-0.93 2.06,-1.39 3.38,-1.39l13.93 0c1.33,0 1.99,-0.66 1.99,-1.99l0 -43.77c0,-1.33 0.46,-2.45 1.39,-3.38 0.93,-0.93 2.06,-1.39 3.38,-1.39l35.02 0c1.33,0 2.45,0.47 3.38,1.39 0.93,0.93 1.39,2.06 1.39,3.38l0 43.77c0,1.33 0.66,1.99 1.99,1.99l24.67 0c1.33,0 2.45,0.46 3.38,1.39 0.93,0.93 1.39,2.06 1.39,3.38l0 23.08z"/>
  <path id="_8" class="fil2" d="M2219.69 217.86c-8.22,0 -14.99,-2.66 -20.29,-7.96 -5.31,-5.31 -7.96,-12.07 -7.96,-20.29 0,-8.22 2.65,-14.99 7.96,-20.29 5.3,-5.31 12.07,-7.96 20.29,-7.96 8.22,0 14.92,2.65 20.1,7.96 5.17,5.3 7.76,12.07 7.76,20.29 0,8.22 -2.65,14.99 -7.96,20.29 -5.3,5.3 -11.94,7.96 -19.89,7.96zm-17.91 231.19c-1.33,0 -2.45,-0.46 -3.38,-1.39 -0.93,-0.93 -1.39,-2.06 -1.39,-3.38l0 -193.79c0,-1.32 0.47,-2.45 1.39,-3.38 0.93,-0.93 2.06,-1.39 3.38,-1.39l36.61 0c1.33,0 2.45,0.46 3.38,1.39 0.93,0.93 1.39,2.06 1.39,3.38l0 193.79c0,1.32 -0.46,2.45 -1.39,3.38 -0.93,0.93 -2.06,1.39 -3.38,1.39l-36.61 0z"/>
  <path id="_9" class="fil2" d="M2324.34 449.05c-2.92,0 -4.77,-1.33 -5.57,-3.98l-48.55 -194.58 0 -1.59c0,-2.39 1.46,-3.58 4.38,-3.58l40.59 0c3.18,0 4.91,1.46 5.17,4.38l23.87 123.75c0.26,0.79 0.66,1.19 1.19,1.19 0.53,0 0.93,-0.4 1.19,-1.19l23.48 -123.75c0.26,-2.92 1.99,-4.38 5.17,-4.38l40.59 0.8c3.71,0 5.17,1.72 4.38,5.17l-48.15 193.79c-0.79,2.65 -2.65,3.98 -5.57,3.98l-42.18 0z"/>
  <path id="_10" class="fil2" d="M2510.97 242.53c20.96,0 37.94,6.1 50.93,18.31 13,12.2 19.5,28.25 19.5,48.15l0 135.3c0,1.32 -0.47,2.45 -1.39,3.38 -0.93,0.93 -2.06,1.39 -3.38,1.39l-36.61 0c-1.33,0 -2.45,-0.46 -3.38,-1.39 -0.93,-0.93 -1.39,-2.06 -1.39,-3.38l0 -7.56c0,-0.8 -0.27,-1.33 -0.8,-1.59 -0.53,-0.26 -1.06,0 -1.59,0.79 -9.28,10.88 -22.81,16.32 -40.59,16.32 -15.12,0 -28.45,-4.31 -39.99,-12.93 -11.54,-8.62 -17.31,-24.34 -17.31,-47.15 0,-23.87 6.96,-40.85 20.89,-50.93 13.93,-10.08 32.83,-15.12 56.7,-15.12l20.69 0c1.33,0 1.99,-0.66 1.99,-1.99l0 -10.35c0,-9.55 -2.39,-17.18 -7.16,-22.88 -4.77,-5.7 -10.74,-8.56 -17.91,-8.56 -5.57,0 -10.21,1.79 -13.93,5.37 -3.71,3.58 -5.97,8.42 -6.77,14.52 -0.26,3.18 -1.99,4.77 -5.17,4.77l-38.6 0c-3.18,0 -4.64,-1.59 -4.38,-4.77 1.33,-18.04 8.42,-32.5 21.29,-43.37 12.86,-10.88 28.98,-16.32 48.35,-16.32zm-5.97 171.5c7.96,0 14.99,-2.52 21.09,-7.56 6.1,-5.04 9.15,-12.07 9.15,-21.09l0 -22.68c0,-1.32 -0.66,-1.99 -1.99,-1.99l-20.69 0c-9.02,0 -16.31,2.45 -21.89,7.36 -5.57,4.91 -8.35,12 -8.35,21.29 0,8.22 2.12,14.39 6.37,18.5 4.24,4.11 9.68,6.17 16.31,6.17z"/>
 </g>
</svg>
